<?xml version="1.0" standalone="no"?><!DOCTYPE svg PUBLIC "-//W3C//DTD SVG 1.1//EN" "http://www.w3.org/Graphics/SVG/1.1/DTD/svg11.dtd"><svg t="1768849774807" class="icon" viewBox="0 0 1198 1024" version="1.1" xmlns="http://www.w3.org/2000/svg" p-id="5741" xmlns:xlink="http://www.w3.org/1999/xlink" width="233.984375" height="200"><path d="M1163.167069 24.232647a499.329056 499.329056 0 0 1-155.464378 60.581618 241.046579 241.046579 0 0 0-424.071327 171.676361 274.153154 274.153154 0 0 0 6.058162 58.533789A693.95817 693.95817 0 0 1 84.814265 36.348971a280.552621 280.552621 0 0 0-32.338638 131.231731 270.654779 270.654779 0 0 0 109.046913 220.141654 231.746021 231.746021 0 0 1-110.92409-34.130489v4.010333a260.671611 260.671611 0 0 0 196.250313 258.538455 226.882426 226.882426 0 0 1-64.591951 8.105991 183.366053 183.366053 0 0 1-46.417465-6.058162 245.056912 245.056912 0 0 0 228.16232 181.744855 482.861095 482.861095 0 0 1-304.955921 110.92409 570.491126 570.491126 0 0 1-58.533789-4.010333 661.960837 661.960837 0 0 0 375.435381 117.152904c450.351804 0 698.736439-391.818015 698.736438-733.03758v-34.130489a544.381302 544.381302 0 0 0 123.211066-131.231731 472.451296 472.451296 0 0 1-141.385551 38.3968A243.435714 243.435714 0 0 0 1163.508374 24.659278z" fill="#666666" p-id="5742"></path></svg>