<?xml version="1.0" standalone="no"?><!DOCTYPE svg PUBLIC "-//W3C//DTD SVG 1.1//EN" "http://www.w3.org/Graphics/SVG/1.1/DTD/svg11.dtd"><svg t="1768849801310" class="icon" viewBox="0 0 1024 1024" version="1.1" xmlns="http://www.w3.org/2000/svg" p-id="6734" xmlns:xlink="http://www.w3.org/1999/xlink" width="200" height="200"><path d="M920.697905 1023.000381H102.302476A102.595048 102.595048 0 0 1 0 920.697905V102.302476A102.595048 102.595048 0 0 1 102.302476 0h818.395429a102.595048 102.595048 0 0 1 102.302476 102.302476v818.395429a102.595048 102.595048 0 0 1-102.302476 102.302476z" fill="#00B30D" p-id="6735"></path><path d="M918.674286 605.110857c0-115.078095-115.614476-209.188571-245.028572-209.188571-137.094095 0-245.028571 94.110476-245.028571 209.188571 0 115.590095 107.934476 209.188571 245.028571 209.188572 28.647619 0 57.782857-7.143619 86.454857-14.311619l79.262477 43.471238-21.455238-72.118858c57.782857-43.471238 100.742095-101.278476 100.742095-166.229333z m-320.219429-33.255619c-17.383619 0-31.207619-13.799619-31.207619-31.207619 0-17.383619 13.824-31.207619 31.207619-31.207619 17.383619 0 31.207619 13.824 31.207619 31.207619 0 17.408-13.824 31.207619-31.207619 31.207619z m157.013333 0c-17.383619 0-31.183238-13.799619-31.183238-31.207619 0-17.383619 13.799619-31.207619 31.207619-31.207619 17.383619 0 31.207619 13.824 31.207619 31.207619 0 17.408-13.824 31.207619-31.207619 31.207619z" fill="#FFFFFF" p-id="6736"></path><path d="M392.313905 179.541333C233.764571 179.541333 103.862857 287.451429 103.862857 424.545524c0 79.286857 42.959238 144.237714 115.590095 194.876952l-28.647619 86.966857 100.766477-50.639238c36.327619 7.143619 64.975238 14.311619 101.278476 14.311619 9.216 0 17.92-0.487619 27.111619-1.024a215.235048 215.235048 0 0 1-8.679619-60.342857c0-125.830095 108.422095-228.132571 245.00419-228.132571 9.191619 0 18.407619 0.487619 27.623619 1.536C658.285714 265.97181 534.528 179.541333 392.289524 179.541333z m-77.238857 188.732953c-6.119619 3.584-12.775619 5.632-19.943619 5.632A39.960381 39.960381 0 0 1 255.268571 334.019048c0-22.016 17.895619-39.911619 39.887239-39.911619 21.991619 0 39.911619 17.895619 39.911619 39.911619 0 13.799619-7.68 27.111619-19.968 34.255238z m184.149333 5.12a39.960381 39.960381 0 0 1-39.887238-39.887238c0-21.991619 17.895619-39.911619 39.887238-39.911619 21.991619 0 39.887238 17.92 39.887238 39.911619 0.512 21.991619-17.383619 39.887238-39.887238 39.887238z" fill="#FFFFFF" p-id="6737"></path></svg>