<?xml version="1.0" encoding="UTF-8"?>
<svg version="1.1" xmlns="http://www.w3.org/2000/svg" width="1516" height="512">
<path d="M0 0 C9.94239147 -0.07654334 19.8834571 -0.05666217 29.82592773 -0.01245117 C33.34683814 0.00136057 36.86774441 0.00924377 40.38867188 0.01757812 C46.50041314 0.03543379 52.61161217 0.07423793 58.72308826 0.13369846 C62.16617511 0.16671834 65.60884029 0.19130587 69.05209351 0.19528198 C72.98175331 0.20035705 76.91045931 0.2453816 80.83984375 0.29296875 C82.6070578 0.28707733 82.6070578 0.28707733 84.40997314 0.28106689 C93.35572766 0.43862232 99.9348607 2.56721571 106.8125 8.375 C107.534375 9.24125 108.25625 10.1075 109 11 C109.64388672 11.75216797 109.64388672 11.75216797 110.30078125 12.51953125 C114.04837493 17.23995161 115.56378288 22.20661067 117 28 C117.185625 28.60585938 117.37125 29.21171875 117.5625 29.8359375 C120.68786364 45.29532548 115.98803521 61.30345099 109 75 C108.34 75 107.68 75 107 75 C106.731875 75.7425 106.46375 76.485 106.1875 77.25 C105.04723249 79.89061949 103.90619694 81.85552844 102 84 C101.34 84 100.68 84 100 84 C100 84.66 100 85.32 100 86 C99.34 86 98.68 86 98 86 C98 86.66 98 87.32 98 88 C97.34 88 96.68 88 96 88 C96 88.66 96 89.32 96 90 C86.3806545 97.52426557 74.61349826 103.02648854 64 109 C63.14100098 109.48581543 62.28200195 109.97163086 61.39697266 110.47216797 C10.19707047 139.37263309 10.19707047 139.37263309 -6 138 C-6.23074219 139.01835937 -6.46148437 140.03671875 -6.69921875 141.0859375 C-10.76008602 158.79953795 -15.8454809 176.1697022 -21.23486328 193.52148438 C-21.86650029 195.56755295 -22.48054583 197.6190433 -23.08984375 199.671875 C-25.45802388 207.35575559 -29.00783111 214.04734632 -33 221 C-33.66 221 -34.32 221 -35 221 C-35.24621094 221.73347656 -35.49242187 222.46695313 -35.74609375 223.22265625 C-39.18989857 230.85052299 -47.65573518 237.23938247 -55 241 C-55.99 241 -56.98 241 -58 241 C-56.65427289 231.2969189 -54.33952586 221.90589331 -51.91860962 212.42980957 C-50.77864143 207.96734065 -49.65422327 203.50094464 -48.52734375 199.03515625 C-48.19466743 197.71963272 -48.19466743 197.71963272 -47.85527039 196.37753296 C-46.12181657 189.51399448 -44.44635768 182.63795484 -42.8125 175.75 C-40.65332039 166.67512005 -38.43910181 157.61482317 -36.1875 148.5625 C-35.88497314 147.33950195 -35.58244629 146.11650391 -35.27075195 144.85644531 C-34.9893335 143.72948242 -34.70791504 142.60251953 -34.41796875 141.44140625 C-34.16813232 140.43795166 -33.9182959 139.43449707 -33.66088867 138.40063477 C-33 136 -33 136 -32 134 C-33.32 133.67 -34.64 133.34 -36 133 C-35 130 -35 130 -33.04492188 128.79248047 C-31.7697168 128.21071045 -31.7697168 128.21071045 -30.46875 127.6171875 C-29.52104736 127.17656982 -28.57334473 126.73595215 -27.59692383 126.28198242 C-26.57493896 125.81767822 -25.5529541 125.35337402 -24.5 124.875 C-22.38799695 123.89216727 -20.27732812 122.90646261 -18.16796875 121.91796875 C-17.12044434 121.42731934 -16.07291992 120.93666992 -14.99365234 120.43115234 C-10.15765329 118.11924348 -5.44066094 115.60320679 -0.72265625 113.06176758 C3.14863812 110.97747694 7.04205758 108.97987941 11 107.0625 C16.76559228 104.21539184 22.26044348 100.96576063 27.78198242 97.67871094 C31.75496864 95.31448704 35.74186347 93.00664368 39.8125 90.8125 C67.58920489 75.98749619 67.58920489 75.98749619 87 52 C87.17778623 49.40024068 87.27753022 46.85175193 87.3125 44.25 C87.34150391 43.54617188 87.37050781 42.84234375 87.40039062 42.1171875 C87.46244903 36.9806608 86.56768956 33.94232578 83 30 C76.68009159 26.39975956 70.65586248 26.52819239 63.50390625 26.48828125 C61.72088356 26.46135445 61.72088356 26.46135445 59.90184021 26.43388367 C56.12209573 26.3798973 52.34247672 26.34592133 48.5625 26.3125 C45.99282113 26.27931675 43.42315879 26.24482616 40.85351562 26.20898438 C34.56912294 26.12417731 28.28471379 26.05577794 22 26 C21.78500854 27.36813843 21.78500854 27.36813843 21.56567383 28.76391602 C20.89743498 32.5867498 19.81917581 36.23321581 18.6875 39.9375 C17.03642683 45.43790516 15.45591609 50.9437488 14 56.5 C12.59092321 61.86358262 11.08264149 67.18594685 9.5 72.5 C7.89905028 77.87726821 6.37092267 83.26297893 4.9375 88.6875 C4.60105469 89.89921875 4.26460938 91.1109375 3.91796875 92.359375 C2.93911284 95.99698056 2.93911284 95.99698056 2.42578125 99.765625 C0.81835423 108.4996215 0.81835423 108.4996215 -2.59716797 111.31787109 C-6.53977697 113.79657488 -10.7454673 115.57876544 -15.08105469 117.25097656 C-17.55018102 118.21475259 -19.9224352 119.35623962 -22.3125 120.5 C-26 122 -26 122 -29 122 C-27.75777091 113.49291354 -25.92013282 105.23108837 -23.77392578 96.9090271 C-22.86321931 93.3734087 -21.9710249 89.8331187 -21.078125 86.29296875 C-20.8987439 85.58270035 -20.71936279 84.87243195 -20.5345459 84.14064026 C-17.67425306 72.77805647 -15.11506484 61.34496015 -12.52868652 49.91760254 C-11.48711439 45.31636897 -10.44336763 40.71563723 -9.39746094 36.11538696 C-8.89277666 33.8908554 -8.39155913 31.66556406 -7.890625 29.44018555 C-2.24431514 4.48863029 -2.24431514 4.48863029 0 0 Z " fill="#585C80" transform="translate(256,229)"/>
<path d="M0 0 C8.12196808 3.49845684 14.73407499 11.86371038 18.05859375 19.88671875 C19.40183768 25.92241919 18.60063058 30.53437051 17.20703125 36.41796875 C16.87377335 37.88405579 16.87377335 37.88405579 16.53378296 39.37976074 C15.72731969 42.8866998 14.89563623 46.38695225 14.05859375 49.88671875 C13.8960762 50.56798828 13.73355865 51.24925781 13.56611633 51.95117188 C11.07264567 62.3975468 8.52217175 72.82953722 5.94824219 83.25634766 C5.10437315 86.67554379 4.26495356 90.09578204 3.4296875 93.51708984 C-4.54943033 126.19418491 -4.54943033 126.19418491 -8.8359375 140.3359375 C-9.10501923 141.224021 -9.37410095 142.11210449 -9.65133667 143.02709961 C-11.9223775 150.27063867 -14.48043779 158.42575029 -19.94140625 163.88671875 C-25.97196588 164.00732994 -28.85830183 161.74391155 -33.2421875 157.7734375 C-35.88767006 154.83603962 -36.94140625 152.86314452 -36.94140625 148.88671875 C-38.318125 149.89992188 -38.318125 149.89992188 -39.72265625 150.93359375 C-59.2355861 165.16614771 -59.2355861 165.16614771 -70.94140625 163.88671875 C-78.46040738 161.89597369 -83.49278725 155.96096276 -87.94140625 149.88671875 C-95.01366983 137.46759638 -91.44801657 124.13459167 -87.91015625 111.08203125 C-81.84423613 91.69567842 -71.6666654 69.56226453 -52.984375 59.76171875 C-46.91817233 57.16357458 -40.4276544 57.09644024 -33.94140625 57.88671875 C-27.9709116 60.2845724 -23.17192255 64.09213361 -18.94140625 68.88671875 C-18.83570313 67.69949219 -18.73 66.51226562 -18.62109375 65.2890625 C-17.95158621 59.26466925 -16.68886836 53.3744781 -15.47332764 47.4407959 C-12.987235 35.27322385 -11.03274589 23.22485945 -10.05517578 10.82250977 C-9.96349121 9.81760498 -9.87180664 8.8127002 -9.77734375 7.77734375 C-9.7107959 6.90110352 -9.64424805 6.02486328 -9.57568359 5.12207031 C-8.26261434 0.49448674 -4.56150561 -0.91230112 0 0 Z M-52.1796875 93.4140625 C-59.97233434 104.35141383 -66.38519896 122.19254376 -65.94140625 135.88671875 C-65.61140625 136.21671875 -65.28140625 136.54671875 -64.94140625 136.88671875 C-55.21262926 136.88671875 -45.92982542 129.75990721 -39.125 123.3046875 C-33.99682141 117.6260783 -28.58411459 111.33342445 -27.4609375 103.5625 C-27.7914632 97.43624457 -29.36344764 92.83272036 -32.94140625 87.88671875 C-33.62203125 86.92765625 -33.62203125 86.92765625 -34.31640625 85.94921875 C-41.39745738 81.31930071 -47.91919271 88.32180083 -52.1796875 93.4140625 Z " fill="#61607F" transform="translate(1309.94140625,285.11328125)"/>
<path d="M0 0 C5.45091261 4.35760635 8.46390831 9.23508944 9.7265625 16.1796875 C9.9765625 19.3671875 9.9765625 19.3671875 8.7265625 22.1796875 C2.34065266 25.64231631 -4.96572582 27.2838108 -11.9609375 29.0546875 C-30.42255034 33.89999035 -30.42255034 33.89999035 -46.2734375 44.1796875 C-43.99755579 52.52458709 -35.47264473 57.70022602 -29.1015625 62.87890625 C-27.70164062 64.01779297 -27.70164062 64.01779297 -26.2734375 65.1796875 C-25.42265625 65.86675781 -24.571875 66.55382812 -23.6953125 67.26171875 C-13.76644164 75.67628069 -2.62127173 88.70134519 -1.2734375 102.1796875 C-0.41590876 112.87735852 -3.44022472 121.91105146 -10.2734375 130.1796875 C-20.85079261 141.41683864 -36.06686559 148.83707925 -51.55859375 149.3828125 C-68.14769137 149.65652568 -82.72965529 147.69408417 -95.2109375 135.7421875 C-101.59782164 128.95540901 -104.56950402 122.77224865 -104.5078125 113.44140625 C-104.17767049 110.2555359 -102.93579259 107.88101452 -101.2734375 105.1796875 C-96.28834479 104.55655091 -92.51704837 104.51541209 -88.3984375 107.6171875 C-87.00500694 108.7830059 -85.63187567 109.97327671 -84.2734375 111.1796875 C-75.76620886 118.51436556 -69.44235268 123.9490743 -57.84375 123.5234375 C-48.71802281 122.30297551 -39.73582349 116.94477363 -33.48828125 110.2734375 C-31.94050875 107.60589391 -31.78482451 106.2230484 -32.2734375 103.1796875 C-37.06682204 95.43557014 -44.0832 88.89144276 -50.9609375 82.9921875 C-76.65492539 60.68422902 -76.65492539 60.68422902 -77.5234375 48.7421875 C-77.35484073 38.57018239 -74.33818854 29.08806544 -66.99609375 21.97265625 C-52.2046133 9.22287795 -19.63230507 -10.91724841 0 0 Z " fill="#626181" transform="translate(899.2734375,299.8203125)"/>
<path d="M0 0 C7.60088433 0.64346111 12.91905436 3.64152624 18.05078125 9.26953125 C22.59401348 15.35916882 22.77190565 20.15141376 21.86157227 27.55102539 C21.49636846 29.8966731 21.08627833 32.22863566 20.65234375 34.5625 C19.55158336 40.33678915 19.55158336 40.33678915 19.15234375 46.1875 C19.43319824 45.71554199 19.71405273 45.24358398 20.00341797 44.75732422 C42.49067781 7.10826889 42.49067781 7.10826889 53.15234375 2.1875 C60.299561 1.13191099 66.24643662 1.96182972 72.15234375 6.1875 C78.76344006 11.39080545 83.6364895 18.81936583 85.15234375 27.1875 C86.85655428 52.68511137 79.29667498 82.36077417 64.1796875 102.98046875 C61.50117328 105.89638501 58.94387134 107.82328835 55.01953125 108.62109375 C49.60403163 108.63171238 49.60403163 108.63171238 47.44116211 106.50463867 C41.96587508 96.66073846 48.34918826 81.35158076 51.08984375 71.375 C54.42999091 59.2000666 56.96711812 47.86380984 57.15234375 35.1875 C43.52286676 40.3568218 36.82234025 58.74752609 30.15234375 70.75 C12.62700095 102.21994152 12.62700095 102.21994152 1.15234375 108.1875 C-2.09765625 108.875 -2.09765625 108.875 -5.84765625 108.1875 C-11.66204769 104.32122941 -17.38037361 98.84788473 -19.84765625 92.1875 C-20.79176707 85.75978664 -17.63498582 79.45907225 -15.19604492 73.65039062 C-9.70620904 60.15920938 -8.96331081 45.65904941 -7.78515625 31.3125 C-7.5450279 28.4212869 -7.30214479 25.53041951 -7.05140686 22.6401062 C-6.89695612 20.85754521 -6.74846229 19.07445362 -6.60716248 17.290802 C-5.16211426 0.52385092 -5.16211426 0.52385092 0 0 Z " fill="#5C5B7A" transform="translate(1123.84765625,340.8125)"/>
<path d="M0 0 C0.99 0 1.98 0 3 0 C3.3403125 0.76183594 3.680625 1.52367188 4.03125 2.30859375 C10.35510558 15.78042439 18.28681763 23.76365745 32.25 29.28515625 C39.6886526 31.68722115 46.72072007 32.36177606 54.45849609 32.64916992 C67.57408199 33.18338397 81.93030177 37.28547611 92 46 C90.66306612 49.59943736 89.00519395 52.73125918 87 56 C87.83660156 55.75378906 88.67320312 55.50757813 89.53515625 55.25390625 C94.53538624 54.27379472 98.63502201 53.50840029 103.0546875 56.29589844 C111.36906167 63.21259764 119.89553256 72.51805768 122.75 83.1875 C122.97171875 83.98542969 123.1934375 84.78335938 123.421875 85.60546875 C123.61265625 86.39566406 123.8034375 87.18585938 124 88 C124.18691406 88.7528125 124.37382812 89.505625 124.56640625 90.28125 C127.90080555 111.18883481 123.10133044 133.12567254 113.875 151.875 C113.53839355 152.55949219 113.20178711 153.24398437 112.85498047 153.94921875 C111.16892615 157.22298117 110.12121275 158.9191915 107 161 C105.84621272 157.53863817 106.22788107 156.15918058 106.9375 152.625 C109.74843115 135.35510108 109.87066251 113.63552977 101 98 C98.96615479 95.24396407 96.8531107 92.61891598 94.609375 90.03125 C93 88 93 88 93 86 C92.45601563 85.75121094 91.91203125 85.50242187 91.3515625 85.24609375 C88.51104505 83.74090261 85.99796231 81.92072 83.375 80.0625 C78.63555828 76.85247322 74.415559 74.80980767 68.86328125 73.47265625 C67 73 67 73 66 72 C65.47742138 65.85970117 67.04285717 60.78988088 69 55 C58.69076286 51.56358762 45.67409842 53.7312725 36 58 C23.79686597 64.28054631 15.59255568 73.78972352 8 85 C7.37996094 85.91007812 6.75992188 86.82015625 6.12109375 87.7578125 C1.36316283 94.9717812 -2.49313852 102.40010707 -5.1875 110.625 C-6 113 -6 113 -8 114 C-9.9593604 114.08510205 -11.92162794 114.10717656 -13.8828125 114.09765625 C-15.04941406 114.09443359 -16.21601563 114.09121094 -17.41796875 114.08789062 C-18.64128906 114.07951172 -19.86460937 114.07113281 -21.125 114.0625 C-22.35605469 114.05798828 -23.58710938 114.05347656 -24.85546875 114.04882812 C-27.90369392 114.0370133 -30.95182314 114.02054028 -34 114 C-33.4607917 108.14104147 -32.28087241 103.15268567 -30.125 97.6875 C-29.82400391 96.92058838 -29.52300781 96.15367676 -29.21289062 95.36352539 C-24.29964162 83.35646909 -17.41158 69.13718991 -8 60 C-7.34 60 -6.68 60 -6 60 C-4.46013571 57.57945586 -4.46013571 57.57945586 -4 54 C-5.03320394 51.1181295 -6.31702446 48.49137253 -7.73828125 45.78125 C-11.38219333 37.74884937 -11.26650762 26.44883991 -8.765625 18.03515625 C-6.43708248 11.84551007 -3.82055436 5.42303751 0 0 Z " fill="#5E6281" transform="translate(287,114)"/>
<path d="M0 0 C5.29112204 2.74731337 9.09375244 6.28125733 11 12 C11.90256451 19.18569631 9.96696452 24.45029927 6.9375 30.875 C6.10682234 32.72222973 5.2800762 34.57123185 4.45703125 36.421875 C4.04275879 37.34935547 3.62848633 38.27683594 3.20166016 39.23242188 C-2.27619845 51.84863584 -7.47344323 65.26098911 -9 79 C2.32988597 72.60878227 9.26050224 60.73605619 16 50 C16.41926758 49.34112793 16.83853516 48.68225586 17.27050781 48.00341797 C25.01979501 35.74117022 30.9625884 22.7986544 36.04003906 9.21826172 C36.3800293 8.31994629 36.72001953 7.42163086 37.0703125 6.49609375 C37.36953613 5.68197021 37.66875977 4.86784668 37.97705078 4.02905273 C39 2 39 2 42 0 C45.33817263 -0.51356502 47.79584669 -0.68696816 50.80078125 1.02734375 C56.25230685 5.39098176 60.78622264 11.35866793 63 18 C63.64538487 24.52930194 62.42658645 30.01851925 60.32421875 36.16015625 C60.04309738 37.01612396 59.76197601 37.87209167 59.47233582 38.7539978 C58.55735146 41.52811739 57.62319978 44.29530595 56.6875 47.0625 C56.04813062 48.98091468 55.40962903 50.89961878 54.77197266 52.81860352 C53.48217776 56.69085632 52.18348435 60.55995596 50.87744141 64.42675781 C49.41062341 68.77149089 47.96432308 73.12253269 46.52967834 77.47798157 C45.55012125 80.44576962 44.55973849 83.40984618 43.56558228 86.37277222 C43.10844262 87.73954483 42.65475579 89.10747758 42.2046814 90.47659302 C41.58296468 92.36196302 40.94423941 94.24169888 40.3046875 96.12109375 C39.7785083 97.69008423 39.7785083 97.69008423 39.24169922 99.29077148 C37.88926925 102.24160031 36.47844158 103.92516691 34 106 C30.91769591 106.79952432 28.10921535 106.64844598 25 106 C22.22354895 103.91766171 20.60661123 102.35320968 19.1875 99.1875 C18.63062518 92.69062706 19.16482976 86.44274185 20 80 C19.3709375 80.845625 18.741875 81.69125 18.09375 82.5625 C2.06088054 103.91025467 2.06088054 103.91025467 -9.21875 106.51171875 C-15.92049705 107.04266702 -20.85738594 104.03471971 -26 100 C-32.38341556 94.02771968 -37.02239111 88.13008846 -37.375 79.125 C-36.57381792 54.55541626 -27.87951274 20.56746401 -11 2 C-7.28900798 -0.47399468 -4.30328431 -0.66141562 0 0 Z " fill="#5A5978" transform="translate(1040,343)"/>
<path d="M0 0 C7.85907479 4.83989943 17.55617445 12.83812532 19.9921875 22.01171875 C20.85078106 29.88215969 18.8442418 35.83948576 16.0625 43.125 C15.835625 43.970625 15.60875 44.81625 15.375 45.6875 C16.035 46.6775 16.695 47.6675 17.375 48.6875 C17.81416665 54.71312474 16.81815769 59.62401789 15.125 65.375 C12.8688211 73.40151277 11.17686397 81.43318954 9.80761719 89.65698242 C8.96809596 94.45816895 7.96602762 98.46533324 5.375 102.6875 C2.39288442 104.17855779 0.68965295 104.19744661 -2.625 103.6875 C-8.40131041 99.30798002 -10.96909368 92.18624421 -13.625 85.6875 C-14.20894531 86.32365234 -14.20894531 86.32365234 -14.8046875 86.97265625 C-22.88912929 95.44828071 -33.06450112 103.66985129 -45.1875 104.1875 C-55.28119048 103.72487252 -61.87268709 97.81119012 -68.625 90.6875 C-74.03939014 84.31699732 -75.54138466 78.64743757 -75.13671875 70.3203125 C-71.69375353 45.87788766 -53.36203283 19.89913225 -34 5.125 C-23.58903798 -1.90983577 -12.01245224 -5.91197721 0 0 Z M-33.49609375 42.95703125 C-37.29228863 48.10337396 -40.4178486 53.656782 -43.5 59.25 C-43.89388916 59.94617432 -44.28777832 60.64234863 -44.69360352 61.35961914 C-47.44853124 66.52140089 -48.26897194 70.84749141 -48.625 76.6875 C-39.54958967 77.71490494 -33.48813209 73.72971652 -26.5 68.2265625 C-16.92869738 60.07576745 -10.91535026 51.22547513 -7.44921875 39.0234375 C-6.625 36.6875 -6.625 36.6875 -4.625 35.6875 C-4.76542877 34.04119672 -4.91249329 32.39545821 -5.0625 30.75 C-5.14371094 29.83347656 -5.22492188 28.91695313 -5.30859375 27.97265625 C-5.38544976 25.72590268 -5.38544976 25.72590268 -6.625 24.6875 C-17.50846018 22.78289447 -27.351821 35.50437474 -33.49609375 42.95703125 Z " fill="#595978" transform="translate(384.625,345.3125)"/>
<path d="M0 0 C6.25578739 3.17059532 11.60676427 7.73305979 14.7890625 14.09765625 C14.91324144 16.13650117 14.96471454 18.18006754 14.9765625 20.22265625 C14.99074219 21.31835938 15.00492188 22.4140625 15.01953125 23.54296875 C14.75419071 27.63550928 13.88172162 31.15026321 12.7890625 35.09765625 C13.48990967 35.0819458 14.19075684 35.06623535 14.9128418 35.05004883 C18.10066601 34.98753213 21.28836101 34.94861244 24.4765625 34.91015625 C25.57935547 34.88501953 26.68214844 34.85988281 27.81835938 34.83398438 C28.88505859 34.82431641 29.95175781 34.81464844 31.05078125 34.8046875 C32.03006592 34.78897705 33.00935059 34.7732666 34.01831055 34.75708008 C37.3062986 35.16123404 39.15201515 36.11674144 41.7890625 38.09765625 C42.9140625 40.97265625 42.9140625 40.97265625 42.7890625 44.09765625 C39.25893918 48.46988914 35.70764773 50.21407823 30.4140625 51.66015625 C28.40845871 52.25040014 26.40369998 52.84460962 24.41162109 53.47900391 C21.7890625 54.09765625 21.7890625 54.09765625 18.21728516 54.24365234 C13.72990288 54.71686313 10.30252195 55.14159132 6.7890625 58.09765625 C2.00629049 65.69821629 0.19108198 75.01291158 -2.0859375 83.59765625 C-2.77414335 86.00427164 -3.46809812 88.40925094 -4.16796875 90.8125 C-6.30261317 98.20860468 -8.3636702 105.62402282 -10.2109375 113.09765625 C-2.11515629 111.28801104 5.67197422 108.88982189 13.46826172 106.07958984 C17.71091423 104.598162 21.22562578 103.66896977 25.7890625 104.09765625 C27.6640625 105.16015625 27.6640625 105.16015625 28.7890625 107.09765625 C29.43268031 111.87881711 28.79309437 115.25805112 26.1640625 119.34765625 C18.81739291 128.697963 6.52574317 136.17834378 -5.2109375 138.09765625 C-14.20665487 139.01264922 -20.89666202 138.61978854 -28.2109375 133.09765625 C-29.18160156 132.41123047 -29.18160156 132.41123047 -30.171875 131.7109375 C-34.535494 128.35076675 -37.69384168 124.45931786 -39.2109375 119.09765625 C-39.71327102 112.95373092 -38.3027386 107.59500283 -36.7109375 101.72265625 C-36.31914307 100.24623657 -36.31914307 100.24623657 -35.91943359 98.73999023 C-32.75883094 87.06703899 -29.01205957 75.57507029 -25.2109375 64.09765625 C-26.13003906 64.41863281 -27.04914062 64.73960937 -27.99609375 65.0703125 C-32.23271318 66.42417752 -35.89306612 67.18841925 -40.0703125 65.22265625 C-44.39823587 62.4113556 -47.54719419 59.03846972 -49.2109375 54.09765625 C-49.50688694 51.33222707 -49.40698683 48.89135922 -49.2109375 46.09765625 C-44.10842608 42.89515895 -39.58309307 41.15496919 -33.7109375 39.91015625 C-32.99035156 39.74580078 -32.26976562 39.58144531 -31.52734375 39.41210938 C-27.1076135 38.42506293 -22.70102859 37.68254969 -18.2109375 37.09765625 C-16.4399154 26.74998622 -14.90009082 16.60731313 -14.51953125 6.1015625 C-14.2213359 3.19887615 -13.87937735 1.47391906 -12.2109375 -0.90234375 C-7.78887499 -2.37636459 -4.31091938 -1.75940349 0 0 Z " fill="#615F7F" transform="translate(704.2109375,310.90234375)"/>
<path d="M0 0 C9.09157059 5.71554764 15.18289729 13.59408411 18 24 C18.40126401 27.24200746 18.4303292 30.42402047 18.375 33.6875 C18.36339844 34.56962158 18.35179687 35.45174316 18.33984375 36.3605957 C17.8976691 54.14349453 11.13883833 70.9255595 -1 84 C-1.88558594 85.03833984 -1.88558594 85.03833984 -2.7890625 86.09765625 C-10.60530849 94.72878746 -22.04324097 101.27435708 -33.68359375 102.3359375 C-43.58578304 102.43897797 -49.34583405 101.49658784 -56.6875 94.875 C-64.42456951 86.60799422 -67.47599226 75.91349941 -67.18359375 64.78515625 C-65.63760362 41.33215704 -55.59622619 19.6080273 -38.4375 3.4375 C-27.31897862 -5.70869237 -12.74783076 -7.40337938 0 0 Z M-18.125 19.625 C-30.12866674 31.89884573 -38.42177942 50.07205813 -38.25 67.25 C-38.25773438 68.03890625 -38.26546875 68.8278125 -38.2734375 69.640625 C-38.26874926 75.09954932 -38.26874926 75.09954932 -36 80 C-24.56068969 75.25687133 -18.37646393 64.3865359 -13.41796875 53.5390625 C-8.84777228 41.81723294 -7.69755081 30.2145381 -11 18 C-11.33 17.34 -11.66 16.68 -12 16 C-15.00807332 16 -15.97937384 17.56908643 -18.125 19.625 Z " fill="#5B5A79" transform="translate(629,347)"/>
<path d="M0 0 C9.47084444 5.9553954 15.84167419 13.73190973 19.6796875 24.19921875 C23.4351867 43.79823022 16.56530598 62.25178095 6.32421875 78.61328125 C-1.4619668 89.89625671 -12.42496106 99.44783771 -25.9296875 102.97265625 C-34.61702309 104.46962651 -42.75141127 104.59499681 -50.51171875 100.05859375 C-58.18157946 94.40567316 -62.64668747 86.68667464 -64.6953125 77.44921875 C-66.27887735 51.20357843 -58.60981566 29.43982075 -41.25390625 9.66796875 C-30.22879672 -2.06454217 -15.40171221 -7.38971041 0 0 Z M-17.44140625 22.078125 C-28.4955007 33.70695573 -36.63099023 52.10669113 -37.0078125 68.19921875 C-36.879006 72.8701491 -36.04333023 76.98391001 -34.6953125 81.44921875 C-24.2698019 78.28997311 -18.56145639 68.52763326 -13.6953125 59.44921875 C-8.44450886 47.90242781 -5.35844692 35.27220605 -8.3671875 22.625 C-9.22064134 20.27380996 -9.22064134 20.27380996 -10.6953125 17.44921875 C-13.21606351 17.44921875 -15.68402996 20.51566343 -17.44140625 22.078125 Z " fill="#5B5A79" transform="translate(976.6953125,345.55078125)"/>
<path d="M0 0 C1.06154297 -0.0309375 1.06154297 -0.0309375 2.14453125 -0.0625 C6.68720455 -0.09633742 9.48639788 0.51067217 13.125 3.25 C14.125 4.25 14.125 4.25 14.5625 7.875 C14.46918717 12.23737473 13.13621915 14.43583208 10.15234375 17.5390625 C6.99152412 20.20657502 3.52298902 22.29131106 0 24.4453125 C-16.28654523 34.66866019 -22.71501041 47.73466019 -27.25250244 65.89544678 C-35.16606378 97.38367337 -35.16606378 97.38367337 -43.875 106.25 C-46.93929776 107.78214888 -49.4915642 107.47938548 -52.875 107.25 C-56.60765137 105.86110647 -58.24114694 104.01458508 -60.125 100.625 C-64.12928164 91.63579632 -62.62346739 84.42459935 -59.875 75.25 C-59.63765137 74.45432617 -59.40030273 73.65865234 -59.15576172 72.83886719 C-58.09519896 69.28693889 -57.03356766 65.73562153 -55.94506836 62.19213867 C-55.69249268 61.36689697 -55.43991699 60.54165527 -55.1796875 59.69140625 C-54.95265137 58.95607666 -54.72561523 58.22074707 -54.49169922 57.46313477 C-52.9099821 51.78686172 -52.78513149 46.6441603 -52.8828125 40.78515625 C-52.90032733 38.91471895 -52.91723575 37.0442759 -52.93359375 35.17382812 C-52.96454779 32.239827 -53.00010072 29.30611601 -53.04638672 26.37231445 C-53.08883053 23.53072531 -53.11219265 20.68947644 -53.1328125 17.84765625 C-53.15143341 16.9756105 -53.17005432 16.10356476 -53.1892395 15.20509338 C-53.21060542 10.10664395 -52.66574631 6.69430976 -49.875 2.25 C-48.33528172 0.71028172 -46.89014329 0.93220293 -44.75 0.8125 C-39.98027347 0.85807064 -37.6729026 2.30341185 -34.31640625 5.58203125 C-32.51992789 7.6608829 -31.10339564 9.79320872 -29.875 12.25 C-29.42511719 11.87488281 -28.97523438 11.49976563 -28.51171875 11.11328125 C-20.00835457 4.34807969 -10.91315542 0.07865337 0 0 Z " fill="#5F5E7D" transform="translate(551.875,341.75)"/>
<path d="M0 0 C1.29550781 -0.02578125 2.59101563 -0.0515625 3.92578125 -0.078125 C8.04539281 0.28121806 11.6726544 1.2351544 14.6875 4.25 C15.39763845 11.23302814 15.39763845 11.23302814 12.6171875 15.21484375 C9.64819069 18.54720875 6.20634646 20.78725864 2.4375 23.125 C-15.67250454 34.84776809 -22.46459308 48.26745713 -27.6875 68.875 C-36.14772354 101.14014903 -36.14772354 101.14014903 -45.3125 107.25 C-48.93313609 107.58524408 -51.58121692 107.52210533 -55 106.25 C-59.4514301 102.40011451 -61.3562266 97.4251404 -62.3125 91.6875 C-62.76720553 84.596259 -60.41041729 77.93361617 -58.3125 71.25 C-58.09190918 70.54375488 -57.87131836 69.83750977 -57.64404297 69.10986328 C-55.79851291 63.2177001 -55.79851291 63.2177001 -54.97607422 60.70458984 C-52.66073559 53.54087677 -52.19576323 47.10563193 -52.3203125 39.65234375 C-52.33782114 37.78060431 -52.35473015 35.90885918 -52.37109375 34.03710938 C-52.40209294 31.10522599 -52.43771844 28.17362935 -52.48388672 25.24194336 C-52.52625026 22.39954041 -52.54966509 19.55747623 -52.5703125 16.71484375 C-52.59824387 15.40373878 -52.59824387 15.40373878 -52.6267395 14.06614685 C-52.64692893 9.26686157 -52.39421714 6.17780273 -49.3125 2.25 C-48.3125 1.25 -48.3125 1.25 -44.625 0.9375 C-40.13829809 1.01761968 -37.75010192 2.270745 -34.3125 5.25 C-32.47770171 7.51082005 -30.91046432 9.80605457 -29.3125 12.25 C-28.86261719 11.87488281 -28.41273438 11.49976563 -27.94921875 11.11328125 C-19.65732866 4.51632661 -10.66541162 0.12659242 0 0 Z " fill="#5F5E7D" transform="translate(477.3125,341.75)"/>
<path d="M0 0 C1.67542976 0.28604898 3.34385343 0.61781233 5 1 C6.31117838 4.93353514 5.61994366 8.18171018 5 12.1875 C4.86827393 13.04827148 4.73654785 13.90904297 4.60083008 14.79589844 C-1.19076933 50.65485421 -10.46524791 86.7705996 -22.33447266 121.06787109 C-23.37167501 124.07903009 -24.37211578 127.10227178 -25.375 130.125 C-25.91125 131.73375 -26.4475 133.3425 -27 135 C-30.63 135 -34.26 135 -38 135 C-36.346634 123.5892695 -34.32827379 112.40806117 -31.54150391 101.22070312 C-30.98507417 98.93878929 -30.46330821 96.65117915 -29.94921875 94.359375 C-11.10617536 11.10617536 -11.10617536 11.10617536 0 0 Z " fill="#2F3B64" transform="translate(198,338)"/>
<path d="M0 0 C1.32 0 2.64 0 4 0 C4 0.66 4 1.32 4 2 C4.66 2 5.32 2 6 2 C7.78196944 5.02187719 8.21038585 6.74410802 7.6015625 10.19140625 C7.45605957 11.03574219 7.31055664 11.88007813 7.16064453 12.75 C6.98388184 13.678125 6.80711914 14.60625 6.625 15.5625 C6.44437012 16.55121094 6.26374023 17.53992188 6.07763672 18.55859375 C0.94600668 45.75170624 -5.65835374 72.81812489 -13.625 99.3125 C-13.902229 100.23772461 -14.17945801 101.16294922 -14.46508789 102.11621094 C-15.2756116 104.75695723 -16.12434639 107.38016629 -17 110 C-17.30446045 110.92844727 -17.6089209 111.85689453 -17.92260742 112.81347656 C-20.33124568 119.55838972 -20.33124568 119.55838972 -23.47265625 121.6328125 C-24.32730469 121.79523438 -25.18195313 121.95765625 -26.0625 122.125 C-26.91972656 122.31320312 -27.77695313 122.50140625 -28.66015625 122.6953125 C-31 123 -31 123 -34 123 C-34.19870219 117.53140947 -33.49577498 112.73156928 -32.27734375 107.41015625 C-32.09685486 106.59765915 -31.91636597 105.78516205 -31.73040771 104.94804382 C-31.1421178 102.31731715 -30.5411866 99.68973358 -29.9375 97.0625 C-29.73170319 96.15963257 -29.52590637 95.25676514 -29.31387329 94.32653809 C-26.05188674 80.0493137 -22.51613094 65.9389771 -18 52 C-17.67358521 50.99199341 -17.67358521 50.99199341 -17.34057617 49.96362305 C-15.55838458 44.4694977 -13.75464608 38.98265826 -11.9375 33.5 C-11.68769379 32.74618042 -11.43788757 31.99236084 -11.18051147 31.21569824 C-7.68961285 20.71731182 -3.95354893 10.33292064 0 0 Z " fill="#2F3B64" transform="translate(213,348)"/>
<path d="M0 0 C1.98 0.33 3.96 0.66 6 1 C3.39475858 18.40718505 -0.20608067 35.50170535 -4.21435547 52.62695312 C-4.86738422 55.43063405 -5.50499148 58.23661732 -6.12890625 61.046875 C-8.16021081 70.1195532 -10.71326626 78.97122157 -13.44140625 87.85546875 C-14.72770961 92.05802946 -15.92788628 96.2792762 -17.10351562 100.51391602 C-20.90355986 114.17392352 -25.42800602 127.58179321 -30 141 C-36.875 140.125 -36.875 140.125 -38 139 C-38.2946358 133.5518763 -37.51845339 128.67919096 -36.3828125 123.39453125 C-36.210345 122.56990891 -36.0378775 121.74528656 -35.86018372 120.89567566 C-35.29143961 118.1991225 -34.70969127 115.50563783 -34.125 112.8125 C-33.92536652 111.88493896 -33.72573303 110.95737793 -33.52005005 110.00170898 C-29.58143671 91.7812529 -24.8636122 73.84271981 -19.58135986 55.96942139 C-19.02048376 54.06939101 -18.46497333 52.16777924 -17.90966797 50.26611328 C-12.88883009 33.13577925 -7.12439483 16.3751475 0 0 Z " fill="#2F3B64" transform="translate(181,332)"/>
<path d="M0 0 C1.4540625 0.0309375 1.4540625 0.0309375 2.9375 0.0625 C2.43971227 8.59600395 1.16880956 16.72490919 -0.6875 25.0625 C-0.95183838 26.27019043 -1.21617676 27.47788086 -1.48852539 28.72216797 C-4.41040564 41.90349279 -7.6699303 54.99537222 -11.0625 68.0625 C-11.50577637 69.77759766 -11.50577637 69.77759766 -11.95800781 71.52734375 C-15.14129803 83.78735986 -18.52374974 95.89929716 -22.65234375 107.875 C-24.39275404 112.95628036 -25.87803655 118.10669147 -27.3684082 123.265625 C-28.81008206 128.24584485 -30.36976989 133.16249178 -32.0625 138.0625 C-35.43712715 137.51526317 -37.14485 137.0076 -40.0625 135.0625 C-33.33139467 97.78870902 -23.9749889 60.92583897 -12.02978516 24.97460938 C-11.02498893 21.94956916 -10.03326423 18.92044048 -9.04296875 15.890625 C-8.40435503 13.94768342 -7.76506244 12.00496481 -7.125 10.0625 C-6.83028809 9.16499023 -6.53557617 8.26748047 -6.23193359 7.34277344 C-5.96074707 6.5284082 -5.68956055 5.71404297 -5.41015625 4.875 C-5.05449585 3.80185547 -5.05449585 3.80185547 -4.69165039 2.70703125 C-3.58285289 -0.19124581 -3.33250065 0.06801022 0 0 Z " fill="#2F3B64" transform="translate(165.0625,329.9375)"/>
<path d="M0 0 C-0.65935797 7.49920385 -2.13437857 14.66730537 -3.8125 22 C-4.08312256 23.19681396 -4.35374512 24.39362793 -4.63256836 25.62670898 C-5.41674527 29.08562676 -6.20794976 32.54287835 -7 36 C-7.3700135 37.63666861 -7.73983666 39.27338029 -8.109375 40.91015625 C-11.42234763 55.4380563 -15.58809778 69.72293101 -19.82421875 84.00390625 C-20.87517505 87.55585108 -21.87812708 91.11996755 -22.875 94.6875 C-24.68948142 101.05305777 -26.64022096 107.37308332 -28.625 113.6875 C-29.07721924 115.14192505 -29.07721924 115.14192505 -29.53857422 116.62573242 C-29.82748535 117.53685791 -30.11639648 118.4479834 -30.4140625 119.38671875 C-30.6713916 120.20358154 -30.9287207 121.02044434 -31.19384766 121.86206055 C-32 124 -32 124 -34 127 C-36.288765 126.084494 -37.72673551 125.36730578 -39.21240234 123.37036133 C-40.33859184 119.9809708 -39.53306111 117.19542458 -38.7265625 113.82421875 C-38.56812866 113.11549118 -38.40969482 112.40676361 -38.24645996 111.67655945 C-37.7202894 109.343346 -37.17346609 107.01556539 -36.625 104.6875 C-36.24925035 103.05368304 -35.8740948 101.41972934 -35.49951172 99.78564453 C-29.29647831 72.91474125 -22.04928501 46.37268998 -14 20 C-13.51539307 18.41179443 -13.51539307 18.41179443 -13.02099609 16.79150391 C-12.21785685 14.18872964 -11.39723979 11.59278521 -10.5625 9 C-10.33997559 8.2886792 -10.11745117 7.5773584 -9.88818359 6.84448242 C-8.01365195 1.2086215 -5.90376941 -0.31912267 0 0 Z " fill="#2F3C66" transform="translate(149,332)"/>
<path d="M0 0 C0.66 0.33 1.32 0.66 2 1 C0.9492831 8.54857145 -0.69728372 15.69267779 -2.87109375 22.9921875 C-4.21874569 27.63999499 -5.28559617 32.34881661 -6.375 37.0625 C-8.67367625 46.92579753 -11.38186261 56.63598893 -14.22949219 66.35302734 C-15.01180337 69.04054885 -15.77802248 71.73216373 -16.5390625 74.42578125 C-19.52894652 85.00529749 -22.65250721 95.5279761 -26 106 C-29 106 -29 106 -30.6960907 104.31253052 C-34.56300229 97.45442233 -30.03450125 86.16505035 -28.19921875 79.0078125 C-27.92157181 77.90001434 -27.64392487 76.79221619 -27.35786438 75.65084839 C-26.77249957 73.32207681 -26.18318179 70.9942956 -25.59008789 68.66748047 C-24.69229427 65.14381657 -23.80701745 61.61719327 -22.92382812 58.08984375 C-20.43733854 48.21052293 -17.94503634 38.36833579 -14.82543945 28.66748047 C-13.96945042 25.90127634 -13.25894447 23.12661857 -12.578125 20.3125 C-12.24554688 18.98798828 -12.24554688 18.98798828 -11.90625 17.63671875 C-11.46230347 15.85300503 -11.04100179 14.06352723 -10.640625 12.26953125 C-9.37103162 7.3859249 -8.23009721 4.63794654 -3.921875 1.8125 C-1.83105469 0.64453125 -1.83105469 0.64453125 0 0 Z " fill="#2E3C67" transform="translate(127,338)"/>
<path d="M0 0 C0.99 0 1.98 0 3 0 C3.98414433 1.91411557 4.96213349 3.8313967 5.9375 5.75 C6.48277344 6.81734375 7.02804687 7.8846875 7.58984375 8.984375 C10.37731278 14.94538911 10.37731278 14.94538911 9.02197266 18.73364258 C7.96123336 22.12390322 7.78801234 24.70918794 7.83203125 28.24609375 C7.82494141 29.41333984 7.81785156 30.58058594 7.81054688 31.78320312 C7.81184692 34.21558366 7.83262146 36.64803319 7.87304688 39.08007812 C7.75771978 49.03665074 7.75771978 49.03665074 3.6640625 53.1953125 C1.83837891 54.70751953 1.83837891 54.70751953 0 56 C-0.58990723 56.42780762 -1.17981445 56.85561523 -1.78759766 57.29638672 C-3.15983169 58.24545773 -4.5754744 59.13138683 -6 60 C-5.566875 59.236875 -5.13375 58.47375 -4.6875 57.6875 C-3.76094084 52.71777362 -5.44486856 50.15444243 -7.73828125 45.78125 C-11.38219333 37.74884937 -11.26650762 26.44883991 -8.765625 18.03515625 C-6.43708248 11.84551007 -3.82055436 5.42303751 0 0 Z M-8 60 C-7.34 60.33 -6.68 60.66 -6 61 C-6.99 61.66 -7.98 62.32 -9 63 C-8.67 62.01 -8.34 61.02 -8 60 Z " fill="#ADA7BE" transform="translate(287,114)"/>
<path d="M0 0 C2 2 2 2 2.13525391 5.08740234 C2.09257336 6.42061366 2.03882052 7.75349689 1.9765625 9.0859375 C1.93949944 10.16734512 1.93949944 10.16734512 1.90168762 11.27059937 C1.81917959 13.63920101 1.72278204 16.0069831 1.625 18.375 C1.49718629 21.65863312 1.3763941 24.94244454 1.26171875 28.2265625 C1.23257889 29.05188477 1.20343903 29.87720703 1.17341614 30.72753906 C1.00899207 35.9429101 1.02418757 41.1218373 1.20703125 46.3359375 C1.24296387 47.59486816 1.27889648 48.85379883 1.31591797 50.15087891 C1.3949513 52.49045597 1.50554161 54.82925411 1.65283203 57.16552734 C1.873387 64.71866898 1.873387 64.71866898 -0.64282227 68.41015625 C-2.65650759 70.47503897 -4.70583238 72.25562051 -7 74 C-7.87269531 74.6909375 -8.74539062 75.381875 -9.64453125 76.09375 C-10.35996094 76.5578125 -11.07539063 77.021875 -11.8125 77.5 C-12.54082031 77.9846875 -13.26914063 78.469375 -14.01953125 78.96875 C-16 80 -16 80 -19 80 C-17.53056723 69.40496532 -14.89344148 59.15875217 -12.25 48.8125 C-11.34806688 45.25315757 -10.44944844 41.69298071 -9.55078125 38.1328125 C-9.219963 36.8250309 -9.219963 36.8250309 -8.88246155 35.49082947 C-6.7513652 27.0522851 -4.7136299 18.59296926 -2.71386719 10.12231445 C-2.38950684 8.75272583 -2.38950684 8.75272583 -2.05859375 7.35546875 C-1.87611084 6.57840576 -1.69362793 5.80134277 -1.50561523 5.00073242 C-1.07909202 3.31296916 -0.55049677 1.6514903 0 0 Z " fill="#757297" transform="translate(217,390)"/>
<path d="M0 0 C0.66 0.33 1.32 0.66 2 1 C1.99666908 1.82019119 1.99666908 1.82019119 1.99327087 2.6569519 C1.97119314 8.33428292 1.95608295 14.0116018 1.94506836 19.68896484 C1.94003128 21.80941259 1.93320141 23.92985685 1.92456055 26.05029297 C1.91246766 29.09343322 1.90676553 32.13652766 1.90234375 35.1796875 C1.89718246 36.13181122 1.89202118 37.08393494 1.88670349 38.06491089 C1.88662796 38.94567291 1.88655243 39.82643494 1.88647461 40.73388672 C1.88314369 41.89970779 1.88314369 41.89970779 1.87974548 43.08908081 C1.88069314 45.08651572 1.88069314 45.08651572 3 47 C2.54121768 48.95806369 1.98412449 50.89340685 1.3828125 52.8125 C1.02316406 53.97007812 0.66351563 55.12765625 0.29296875 56.3203125 C-0.09246094 57.53460938 -0.47789062 58.74890625 -0.875 60 C-1.25269531 61.21429688 -1.63039062 62.42859375 -2.01953125 63.6796875 C-4.82900856 72.65801711 -4.82900856 72.65801711 -6 75 C-9.63 75 -13.26 75 -17 75 C-15.34964685 63.61006271 -13.33900678 52.44541732 -10.55908203 41.27783203 C-9.95667724 38.82349285 -9.38029133 36.36401169 -8.80859375 33.90234375 C-6.15699905 22.51460747 -3.22479029 11.23873723 0 0 Z " fill="#3D487A" transform="translate(177,398)"/>
<path d="M0 0 C0.33 0 0.66 0 1 0 C1.19455505 5.04920342 1.37287261 10.09864511 1.53710938 15.14892578 C1.59498226 16.86164165 1.65704866 18.57422177 1.72363281 20.28662109 C2.29193171 35.01933955 0.92363419 47.29976573 -4 61.3125 C-4.7096186 63.37065106 -5.41798573 65.4292341 -6.125 67.48828125 C-6.61613281 68.91261475 -6.61613281 68.91261475 -7.1171875 70.36572266 C-8.18552522 73.55359987 -9.12131788 76.75528323 -10 80 C-13.37462715 79.45276317 -15.08235 78.9451 -18 77 C-13.30399598 50.99567177 -7.1508013 25.43380242 0 0 Z " fill="#434B80" transform="translate(143,388)"/>
<path d="M0 0 C0.66 0 1.32 0 2 0 C2.2710046 5.24187066 2.5028557 10.48366293 2.7019043 15.72875977 C2.77441024 17.5045951 2.85674611 19.28006234 2.94995117 21.05493164 C3.60396572 33.68134367 2.43713086 44.14073195 -2 56 C-2.27661469 56.74490692 -2.55322937 57.48981384 -2.83822632 58.2572937 C-3.55349163 60.17352556 -4.27604895 62.0870327 -5 64 C-11.875 63.125 -11.875 63.125 -13 62 C-13.33937091 56.28975632 -12.390066 51.14953333 -11.171875 45.5859375 C-10.98159729 44.69444 -10.79131958 43.8029425 -10.59527588 42.88442993 C-10.19183272 41.00277057 -9.78484188 39.12186876 -9.37451172 37.24169922 C-8.75688715 34.40661412 -8.15298475 31.56886443 -7.55078125 28.73046875 C-5.46138039 18.99211636 -3.1960617 9.44491337 0 0 Z " fill="#67668F" transform="translate(156,409)"/>
<path d="M0 0 C4.01540622 1.36711301 6.65646044 3.6036082 9.4375 6.8125 C11.26670931 10.544087 11.55258945 12.89504981 11 17 C7.32070555 19.45286296 5.52622093 19.23228878 1.14453125 19.1953125 C0.48289474 19.1924826 -0.17874176 19.18965271 -0.86042786 19.18673706 C-2.96963737 19.17555918 -5.07841925 19.15045981 -7.1875 19.125 C-8.61913448 19.11496707 -10.05077564 19.10584176 -11.48242188 19.09765625 C-14.98841977 19.07562795 -18.49416813 19.04111485 -22 19 C-22.16584707 12.35414893 -20.21394988 9.04682468 -16 4 C-13.25 2 -13.25 2 -11 1 C-7.51489167 -0.74255416 -3.81045929 -0.44351248 0 0 Z " fill="#323C64" transform="translate(368,206)"/>
<path d="M0 0 C-0.54716592 6.04256653 -1.5184695 11.56280674 -3.23828125 17.37109375 C-3.69156053 18.95017377 -4.14417526 20.52944466 -4.59619141 22.10888672 C-4.8287262 22.91445007 -5.06126099 23.72001343 -5.30084229 24.54998779 C-6.44366707 28.5547132 -7.52124977 32.57675625 -8.60546875 36.59765625 C-9.2490125 38.96005477 -9.894271 41.32197977 -10.53979492 43.68383789 C-10.97968532 45.29931174 -11.4167629 46.91555361 -11.85131836 48.5324707 C-12.4911527 50.91044698 -13.14100206 53.28548207 -13.79296875 55.66015625 C-13.9856987 56.38598404 -14.17842865 57.11181183 -14.3769989 57.8596344 C-14.85759475 59.59100315 -15.4213021 61.29890657 -16 63 C-16.99 63.495 -16.99 63.495 -18 64 C-22.34699035 52.24376698 -19.94449387 41.42067924 -16.8125 29.6875 C-16.52125244 28.59083008 -16.23000488 27.49416016 -15.92993164 26.36425781 C-8.49329644 0 -8.49329644 0 0 0 Z " fill="#2E3C6C" transform="translate(105,356)"/>
<path d="M0 0 C0.66 0.33 1.32 0.66 2 1 C1.78257772 9.40782701 1.55688565 17.81537807 1.32132149 26.22271442 C1.21212347 30.12877225 1.10552205 34.03486101 1.00537109 37.94116211 C0.2342398 67.87919028 0.2342398 67.87919028 -0.9453125 79.48046875 C-1.01950409 80.22847244 -1.09369568 80.97647614 -1.1701355 81.74714661 C-1.57573799 85.2153278 -2.02200172 87.03300258 -4 90 C-4.66 90 -5.32 90 -6 90 C-6.07311778 81.79731053 -6.05946609 73.5955956 -6.01245117 65.39282227 C-6.00381843 63.73381304 -5.99694075 62.0747941 -5.99145508 60.41577148 C-5.9725037 54.73701796 -5.92457182 49.0594807 -5.84640503 43.38122559 C-5.82412822 41.48815787 -5.80998308 39.59497369 -5.80471802 37.70178223 C-5.75856179 24.40583845 -3.97754247 12.69750437 0 0 Z " fill="#464E7E" transform="translate(223,365)"/>
<path d="M0 0 C2.9375 1.875 2.9375 1.875 5 5 C5.97546742 10.28179921 5.86193239 14.48418786 3.1875 19.1875 C-1.52112009 21.86495064 -5.71771565 22.09288642 -11 21 C-13.96474917 19.31129919 -14.35414151 18.23496324 -16 15 C-16.88643404 10.40665995 -16.65513529 7.14042069 -14.3125 3.0625 C-9.6480254 -1.09770707 -6.0606283 -1.62338258 0 0 Z " fill="#303C64" transform="translate(342,175)"/>
<path d="M0 0 C0.86373981 2.94953945 1.08490191 5.44270773 0.94921875 8.5078125 C0.91127197 9.40032715 0.8733252 10.2928418 0.83422852 11.21240234 C0.7615979 12.65413818 0.7615979 12.65413818 0.6875 14.125 C0.63972412 15.12096191 0.59194824 16.11692383 0.54272461 17.14306641 C0.13290198 25.22564457 -0.36966999 33.30206045 -0.9375 41.375 C-1.04928589 43.08647217 -1.04928589 43.08647217 -1.16333008 44.83251953 C-1.24220459 45.88552246 -1.3210791 46.93852539 -1.40234375 48.0234375 C-1.46929443 48.96106934 -1.53624512 49.89870117 -1.60522461 50.86474609 C-1.80063843 51.92169678 -1.80063843 51.92169678 -2 53 C-2.99 53.495 -2.99 53.495 -4 54 C-4.82165509 52.29605107 -5.63190645 50.58660102 -6.4375 48.875 C-6.88996094 47.92367187 -7.34242188 46.97234375 -7.80859375 45.9921875 C-11.91120535 35.68857934 -11.04712007 23.3569166 -6.859375 13.24609375 C-4.82485908 8.64392069 -2.64723534 4.28342745 0 0 Z " fill="#D7D3DF" transform="translate(287,114)"/>
<path d="M0 0 C0.66 0 1.32 0 2 0 C3.23833716 34.28288799 3.23833716 34.28288799 -4 51 C-4.99 51 -5.98 51 -7 51 C-8.98058003 48.99079474 -9.92455409 47.6881201 -10.23461914 44.86010742 C-9.22707163 35.46728569 -6.80186583 26.43630804 -4.4375 17.3125 C-4.00769239 15.62845184 -3.57864982 13.94420822 -3.15039062 12.25976562 C-2.10906413 8.17087102 -1.0574302 4.08475826 0 0 Z " fill="#747198" transform="translate(105,393)"/>
<path d="M0 0 C0.66 0 1.32 0 2 0 C2.33 14.19 2.66 28.38 3 43 C-6 46 -6 46 -9 46 C-9.19217898 40.64306557 -8.53150385 36.00006183 -7.28515625 30.80078125 C-7.10995956 30.043311 -6.93476288 29.28584076 -6.7542572 28.50541687 C-6.19750626 26.10604014 -5.63016068 23.70931634 -5.0625 21.3125 C-4.68485037 19.69221947 -4.30789071 18.07177797 -3.93164062 16.45117188 C-1.21259884 4.76955543 -1.21259884 4.76955543 0 0 Z " fill="#7A769A" transform="translate(188,425)"/>
<path d="M0 0 C0.66 0.33 1.32 0.66 2 1 C2.10199025 7.93753403 2.17171192 14.87487245 2.21972656 21.81298828 C2.23975732 24.16983261 2.26698992 26.52662778 2.30175781 28.88330078 C2.35065172 32.28430362 2.37305502 35.6846455 2.390625 39.0859375 C2.41127014 40.12801361 2.43191528 41.17008972 2.45318604 42.2437439 C2.45531318 49.28637255 1.08299935 54.66893815 -2 61 C-2.66 60.67 -3.32 60.34 -4 60 C-4 46.14 -4 32.28 -4 18 C-4.66 17.67 -5.32 17.34 -6 17 C-5.19126545 14.35296109 -4.37821309 11.7073879 -3.5625 9.0625 C-3.33240234 8.30775391 -3.10230469 7.55300781 -2.86523438 6.77539062 C-1.11328125 1.11328125 -1.11328125 1.11328125 0 0 Z " fill="#4B517E" transform="translate(194,407)"/>
<path d="M0 0 C0.66 0 1.32 0 2 0 C2.0746894 5.10454178 2.12885461 10.20875875 2.16479492 15.3137207 C2.17979269 17.04685006 2.20019772 18.77994204 2.22631836 20.51293945 C2.26310203 23.01783525 2.27981651 25.5222252 2.29296875 28.02734375 C2.30845261 28.79022202 2.32393646 29.55310028 2.33988953 30.33909607 C2.34162938 36.02172327 1.06264072 40.72068634 -1 46 C-4.37462715 45.45276317 -6.08235 44.9451 -9 43 C-6.30740644 28.58797605 -3.54728969 14.2287933 0 0 Z " fill="#9B96B1" transform="translate(134,422)"/>
<path d="M0 0 C0.10018279 4.07088917 0.17207471 8.14128401 0.21972656 12.21313477 C0.2396267 13.593145 0.2667574 14.97307337 0.30175781 16.3527832 C0.52532921 25.40413708 -0.14321786 32.74183373 -4 41 C-8 41 -8 41 -9.79345703 39.84960938 C-11.56369509 37.13586524 -10.9478549 35.53810813 -10.3046875 32.40625 C-10.08296875 31.2925 -9.86125 30.17875 -9.6328125 29.03125 C-9.25769531 27.28328125 -9.25769531 27.28328125 -8.875 25.5 C-8.648125 24.365625 -8.42125 23.23125 -8.1875 22.0625 C-4.98205213 6.35940706 -4.98205213 6.35940706 -3 1 C-1 0 -1 0 0 0 Z " fill="#8A84A5" transform="translate(120,417)"/>
<path d="M0 0 C1.36125 0.7425 2.7225 1.485 4.125 2.25 C13.50289924 6.92566648 23.5389525 9.51792408 34 10 C34 10.66 34 11.32 34 12 C33.18321777 12.14099121 32.36643555 12.28198242 31.52490234 12.42724609 C28.47151069 12.95659313 25.41888271 13.49010134 22.36669922 14.02636719 C20.40517661 14.3697178 18.44282713 14.70833374 16.48046875 15.046875 C15.23652344 15.26601562 13.99257813 15.48515625 12.7109375 15.7109375 C11.56931152 15.90993652 10.42768555 16.10893555 9.25146484 16.31396484 C5.49403551 17.04247448 5.49403551 17.04247448 0 19 C0 12.73 0 6.46 0 0 Z " fill="#2F3E6A" transform="translate(306,137)"/>
<path d="M0 0 C2.53865349 3.80798024 1.83103312 4.61371119 1 9 C0.80684431 12.08629206 0.76884996 15.17407106 0.71875 18.265625 C0.70034058 19.14023376 0.68193115 20.01484253 0.66296387 20.91595459 C0.584602 24.64013987 0.51629679 28.36449009 0.44775391 32.08886719 C0.39612043 34.81454643 0.33887173 37.54006685 0.28125 40.265625 C0.26767456 41.11143127 0.25409912 41.95723755 0.2401123 42.82867432 C0.11289747 48.77420505 0.11289747 48.77420505 -1 51 C-7.875 50.125 -7.875 50.125 -9 49 C-9.36981664 43.12916089 -8.30570516 37.84247231 -7.03125 32.12890625 C-6.73160339 30.74541237 -6.73160339 30.74541237 -6.42590332 29.33396912 C-5.79069436 26.40862473 -5.14550997 23.48558671 -4.5 20.5625 C-4.06574406 18.57110783 -3.63214331 16.57957266 -3.19921875 14.58789062 C-2.14038852 9.72357264 -1.07261063 4.86129708 0 0 Z " fill="#9B95B1" transform="translate(152,422)"/>
<path d="M0 0 C0.66 0 1.32 0 2 0 C2.12572145 4.83389299 2.21531065 9.66678888 2.2746582 14.50195312 C2.29945469 16.13884092 2.33330364 17.77562232 2.37719727 19.41210938 C2.68542345 31.21898517 1.22473546 40.94995911 -3 52 C-5 50 -5 50 -5.22705078 47.66162109 C-5.21657715 46.70852051 -5.20610352 45.75541992 -5.1953125 44.7734375 C-5.18886719 43.7421875 -5.18242188 42.7109375 -5.17578125 41.6484375 C-5.15902344 40.56820312 -5.14226562 39.48796875 -5.125 38.375 C-5.11597656 37.28703125 -5.10695313 36.1990625 -5.09765625 35.078125 C-5.07403409 32.38519848 -5.04109556 29.69270745 -5 27 C-5.66 26.67 -6.32 26.34 -7 26 C-6.02464702 22.04071684 -5.04407464 18.08274489 -4.0625 14.125 C-3.78470703 12.99707031 -3.50691406 11.86914062 -3.22070312 10.70703125 C-2.95322266 9.63066406 -2.68574219 8.55429687 -2.41015625 7.4453125 C-2.04096069 5.95281982 -2.04096069 5.95281982 -1.66430664 4.43017578 C-1 2 -1 2 0 0 Z " fill="#525584" transform="translate(124,391)"/>
<path d="M0 0 C0.66 0 1.32 0 2 0 C2.02467759 5.37515933 2.04284928 10.75028585 2.05493164 16.12548828 C2.05996737 17.95492121 2.06679627 19.78435009 2.07543945 21.61376953 C2.08753824 24.23991898 2.09323583 26.86601532 2.09765625 29.4921875 C2.10281754 30.31306854 2.10797882 31.13394958 2.11329651 31.97970581 C2.11387171 37.77225659 2.11387171 37.77225659 1 40 C-1.97 40 -4.94 40 -8 40 C-6.09564326 26.45274677 -3.35463555 13.26126254 0 0 Z " fill="#938DAB" transform="translate(168,433)"/>
<path d="M0 0 C0.66 0 1.32 0 2 0 C2.07636198 6.68937834 2.12873047 13.37864333 2.16479492 20.06835938 C2.17983716 22.34183961 2.20027603 24.61529104 2.22631836 26.88867188 C2.26290221 30.16543711 2.27977248 33.44181706 2.29296875 36.71875 C2.30845261 37.72740112 2.32393646 38.73605225 2.33988953 39.77526855 C2.34133479 45.90088643 1.51756666 50.40153574 -1 56 C-1.66 56 -2.32 56 -3 56 C-2.67 42.8 -2.34 29.6 -2 16 C-2.66 16 -3.32 16 -4 16 C-2.68 10.72 -1.36 5.44 0 0 Z " fill="#7F7BA1" transform="translate(172,417)"/>
<path d="M0 0 C0.66 0 1.32 0 2 0 C2.03011736 5.0364614 2.01457638 10.06997416 1.95727539 15.10620117 C1.94416076 16.81806512 1.94337859 18.53007084 1.95532227 20.24194336 C1.97036527 22.70828055 1.94061582 25.17070215 1.90234375 27.63671875 C1.92372658 28.77919319 1.92372658 28.77919319 1.94554138 29.94474792 C1.86255582 33.01165515 1.62002086 35.33207839 -0.51290894 37.62979126 C-3.51337372 39.88163226 -5.17747885 41 -9 41 C-7.63189073 31.78303709 -5.6108626 22.79056363 -3.375 13.75 C-3.04647331 12.40765033 -2.71834607 11.06520283 -2.390625 9.72265625 C-1.59765104 6.48079213 -0.80070933 3.23996055 0 0 Z " fill="#CFCBD8" transform="translate(207,429)"/>
<path d="M0 0 C3.11796384 3.11796384 2.32365296 6.45140975 2.37939453 10.71313477 C2.37794434 11.88030029 2.37649414 13.04746582 2.375 14.25 C2.37483887 15.4268335 2.37467773 16.60366699 2.37451172 17.81616211 C2.26352949 26.28410631 1.70337606 34.22831666 -2 42 C-2.99 42.495 -2.99 42.495 -4 43 C-9.442404 28.42840219 -4.3780328 14.16068498 0 0 Z " fill="#525683" transform="translate(91,377)"/>
<path d="M0 0 C1.65 1.65 3.3 3.3 5 5 C4.67 5.99 4.34 6.98 4 8 C3.78626703 9.6977458 3.61265449 11.40071816 3.46484375 13.10546875 C3.37783203 14.08837891 3.29082031 15.07128906 3.20117188 16.08398438 C3.11416016 17.10814453 3.02714844 18.13230469 2.9375 19.1875 C2.84662109 20.22326172 2.75574219 21.25902344 2.66210938 22.32617188 C2.43816517 24.88385044 2.21759327 27.44177459 2 30 C2.66 30.33 3.32 30.66 4 31 C1.35261084 32.4606285 0.10551666 33 -3 33 C-3.05828635 28.79172527 -3.093693 24.58355511 -3.125 20.375 C-3.14175781 19.18519531 -3.15851563 17.99539062 -3.17578125 16.76953125 C-3.18222656 15.61582031 -3.18867188 14.46210938 -3.1953125 13.2734375 C-3.20578613 12.21560059 -3.21625977 11.15776367 -3.22705078 10.06787109 C-2.97294521 6.6344404 -2.54721984 2.54721984 0 0 Z " fill="#8681A3" transform="translate(297,129)"/>
<path d="M0 0 C0.33 0 0.66 0 1 0 C1.07594813 7.20818345 1.12855678 14.41626405 1.16479492 21.62475586 C1.17989881 24.07792008 1.20038321 26.53105724 1.22631836 28.98413086 C1.26263057 32.50641555 1.27971036 36.02834381 1.29296875 39.55078125 C1.30845261 40.65086014 1.32393646 41.75093903 1.33988953 42.88435364 C1.34011612 43.90518539 1.34034271 44.92601715 1.34057617 45.9777832 C1.34723801 46.87713089 1.35389984 47.77647858 1.36076355 48.70307922 C0.92821463 51.45704534 0.21865851 52.35907382 -2 54 C-2.66 54 -3.32 54 -4 54 C-4.10045875 48.88124019 -4.17220033 43.7630801 -4.21972656 38.64355469 C-4.23958198 36.9097288 -4.26667573 35.17596745 -4.30175781 33.44238281 C-4.53406176 21.64954148 -3.49612564 11.28850489 0 0 Z " fill="#A59FB8" transform="translate(212,410)"/>
<path d="M0 0 C0.66 0.33 1.32 0.66 2 1 C1.09778598 30.70633942 1.09778598 30.70633942 0.5625 40.5 C0.50191406 41.6446875 0.44132813 42.789375 0.37890625 43.96875 C-0.02317757 47.1854206 -0.87205173 49.96778279 -2 53 C-2.33 53 -2.66 53 -3 53 C-3 42.11 -3 31.22 -3 20 C-3.66 19.67 -4.32 19.34 -5 19 C-3.35 12.73 -1.7 6.46 0 0 Z " fill="#6C6A91" transform="translate(139,402)"/>
<path d="M0 0 C0.66 0 1.32 0 2 0 C2.14833842 16.31928611 1.6924784 32.57154882 1 48.875 C0.90323606 51.23175404 0.80687984 53.58852487 0.7109375 55.9453125 C0.47863652 61.63040944 0.24138683 67.31528195 0 73 C-0.66 73 -1.32 73 -2 73 C-2.1413427 57.14352393 -1.96578388 41.30012429 -1.62667847 25.4473877 C-1.58383454 23.43806254 -1.54259945 21.42870245 -1.50296021 19.41931152 C-1.44588127 16.56976675 -1.38219793 13.72044912 -1.31640625 10.87109375 C-1.29968872 10.00453659 -1.28297119 9.13797943 -1.26574707 8.24516296 C-1.11476429 2.22952858 -1.11476429 2.22952858 0 0 Z " fill="#5F608B" transform="translate(219,382)"/>
<path d="M0 0 C0.66 0 1.32 0 2 0 C2.66 1.98 3.32 3.96 4 6 C3.01 6 2.02 6 1 6 C1.00523682 6.7027002 1.01047363 7.40540039 1.01586914 8.12939453 C1.06125377 15.19675722 1.05856076 22.26269055 1.01660156 29.33007812 C1.00600518 31.67250216 1.00442843 34.01499616 1.01464844 36.35742188 C1.0230176 39.36474237 0.98666189 42.36814576 0.9375 45.375 C0.9540564 46.72682373 0.9540564 46.72682373 0.97094727 48.10595703 C0.80784707 54.1505314 0.80784707 54.1505314 -1.62060547 56.70410156 C-3.55859375 58.1015625 -3.55859375 58.1015625 -7 60 C-6.690625 59.401875 -6.38125 58.80375 -6.0625 58.1875 C-4.36153791 54.68551922 -3.79916052 51.67046789 -3.5 47.828125 C-3.41806396 46.78156738 -3.33612793 45.73500977 -3.25170898 44.65673828 C-3.16864502 43.53251465 -3.08558105 42.40829102 -3 41.25 C-2.91242432 40.09870605 -2.82484863 38.94741211 -2.73461914 37.76123047 C-2.08493371 28.91751625 -1.63295807 20.07450443 -1.34179688 11.21191406 C-1.29442383 9.87338379 -1.29442383 9.87338379 -1.24609375 8.5078125 C-1.22216553 7.73066895 -1.1982373 6.95352539 -1.17358398 6.15283203 C-1.00033424 4.0041453 -0.58422213 2.07141329 0 0 Z M-9 60 C-8.34 60.33 -7.68 60.66 -7 61 C-7.99 61.66 -8.98 62.32 -10 63 C-9.67 62.01 -9.34 61.02 -9 60 Z " fill="#BFBBCC" transform="translate(288,114)"/>
<path d="M0 0 C0.33 0 0.66 0 1 0 C1.19303324 6.13777029 1.37163098 12.27573153 1.53710938 18.41430664 C1.59535641 20.50068301 1.65748409 22.58695491 1.72363281 24.6730957 C1.81826198 27.67900564 1.89873486 30.68502 1.9765625 33.69140625 C2.00875885 34.61772354 2.0409552 35.54404083 2.0741272 36.49842834 C2.19504945 41.77599348 1.75015423 46.0093725 0 51 C-2 49 -2 49 -2.22705078 45.56005859 C-2.22673369 44.08948021 -2.21540987 42.61887858 -2.1953125 41.1484375 C-2.1924826 40.37440582 -2.18965271 39.60037415 -2.18673706 38.80288696 C-2.17552754 36.32676843 -2.15042203 33.8510095 -2.125 31.375 C-2.11497118 29.69792188 -2.10584516 28.02083811 -2.09765625 26.34375 C-2.07558574 22.22902777 -2.04105102 18.11457489 -2 14 C-2.66 13.67 -3.32 13.34 -4 13 C-3.52511102 11.01980257 -3.04497141 9.04086365 -2.5625 7.0625 C-2.29566406 5.96035156 -2.02882812 4.85820312 -1.75390625 3.72265625 C-1 1 -1 1 0 0 Z " fill="#474F82" transform="translate(160,395)"/>
<path d="M0 0 C0 6.93 0 13.86 0 21 C-5 20 -5 20 -7.3125 18 C-9.6009259 13.93168729 -9.84479015 10.57180554 -9 6 C-6.46700189 1.94720303 -4.87107555 0 0 0 Z " fill="#79769B" transform="translate(335,175)"/>
<path d="M0 0 C0.66 0 1.32 0 2 0 C1.90657935 4.94825616 1.8005124 9.89601634 1.68261719 14.84375 C1.64428896 16.52759329 1.60944288 18.21151955 1.578125 19.89550781 C1.53255713 22.31345306 1.47455077 24.73082528 1.4140625 27.1484375 C1.40251129 27.9036972 1.39096008 28.65895691 1.37905884 29.43710327 C1.22774341 34.77225659 1.22774341 34.77225659 -1 37 C-5.90403483 25.88418771 -5.06391635 13.17044361 -0.875 2 C-0.58625 1.34 -0.2975 0.68 0 0 Z " fill="#ECEBF0" transform="translate(281,125)"/>
<path d="M0 0 C0.66 0 1.32 0 2 0 C1.96970703 0.90951416 1.93941406 1.81902832 1.90820312 2.75610352 C1.31531167 20.84271338 0.8341225 38.90092118 1 57 C-0.485 57.495 -0.485 57.495 -2 58 C-2.02496759 52.11417947 -2.04298502 46.22839068 -2.05493164 40.3425293 C-2.05991909 38.34577903 -2.06671145 36.34903234 -2.07543945 34.35229492 C-2.20293488 4.40586975 -2.20293488 4.40586975 0 0 Z " fill="#8C87A7" transform="translate(214,402)"/>
<path d="M0 0 C0.66 0 1.32 0 2 0 C2.21828895 5.40714349 2.41488932 10.81449669 2.59204102 16.22314453 C2.65519521 18.06026926 2.72411573 19.89720568 2.79907227 21.73388672 C2.90623061 24.38479713 2.99214737 27.03570825 3.07421875 29.6875 C3.11157639 30.49928711 3.14893402 31.31107422 3.18742371 32.14746094 C3.3340151 37.79616948 2.26697593 41.81834072 0 47 C-0.33 47 -0.66 47 -1 47 C-1.02497151 42.07446652 -1.04298678 37.148971 -1.05493164 32.22338867 C-1.05991846 30.55248369 -1.06671031 28.88158298 -1.07543945 27.21069336 C-1.12185731 18.08821877 -1.12303748 9.07166129 0 0 Z " fill="#837FA0" transform="translate(153,420)"/>
<path d="M0 0 C0.33 0 0.66 0 1 0 C1 9.9 1 19.8 1 30 C-0.98 29.34 -2.96 28.68 -5 28 C-6.36035315 23.91894056 -5.16554166 20.78123757 -4.125 16.75 C-2.52406258 10.43364126 -2.52406258 10.43364126 -1.4296875 4.015625 C-1 1 -1 1 0 0 Z " fill="#B8B3C7" transform="translate(131,438)"/>
<path d="M0 0 C1.90608098 3.21182149 2.22266247 5.53882603 2.125 9.25 C2.10695313 10.14203125 2.08890625 11.0340625 2.0703125 11.953125 C2.03550781 12.96632813 2.03550781 12.96632813 2 14 C1.67 14 1.34 14 1 14 C1 19.94 1 25.88 1 32 C-3 32 -3 32 -4.79785156 30.8671875 C-6.59574803 28.07467893 -5.8990334 26.32788997 -5.234375 23.125 C-4.88826172 21.40023438 -4.88826172 21.40023438 -4.53515625 19.640625 C-4.27605469 18.43921875 -4.01695313 17.2378125 -3.75 16 C-3.50636719 14.79859375 -3.26273437 13.5971875 -3.01171875 12.359375 C-1.23815598 3.71446793 -1.23815598 3.71446793 0 0 Z " fill="#B0ABC0" transform="translate(115,426)"/>
<path d="M0 0 C0.33 0 0.66 0 1 0 C1 5.61 1 11.22 1 17 C-1.97 17 -4.94 17 -8 17 C-8.8675136 11.36116159 -6.61952767 8.37266248 -3.5078125 3.953125 C-2 2 -2 2 0 0 Z " fill="#A59FB9" transform="translate(354,208)"/>
<path d="M0 0 C0.33 0 0.66 0 1 0 C1 8.58 1 17.16 1 26 C-0.98 26.33 -2.96 26.66 -5 27 C-5.22833417 21.4315926 -4.42141111 16.6386233 -3.0625 11.25 C-2.88009766 10.49589844 -2.69769531 9.74179687 -2.50976562 8.96484375 C-1.76976985 5.93489743 -0.98665772 2.95997316 0 0 Z " fill="#A8A2BD" transform="translate(184,444)"/>
<path d="M0 0 C0.33 0 0.66 0 1 0 C1.04975174 4.28668688 1.0858847 8.57321697 1.10986328 12.86010742 C1.1198685 14.31586641 1.13347696 15.77160557 1.15087891 17.22729492 C1.17537044 19.3299654 1.18653794 21.43236824 1.1953125 23.53515625 C1.20578613 24.797229 1.21625977 26.05930176 1.22705078 27.35961914 C0.9838477 31.25897529 0.20377453 34.30328756 -1 38 C-1.33 38 -1.66 38 -2 38 C-2 28.76 -2 19.52 -2 10 C-2.66 9.67 -3.32 9.34 -4 9 C-3.34 7.35 -2.68 5.7 -2 4 C-1.34 4 -0.68 4 0 4 C0 2.68 0 1.36 0 0 Z " fill="#464E7E" transform="translate(109,383)"/>
<path d="M0 0 C0.66 0 1.32 0 2 0 C2 15.51 2 31.02 2 47 C1.34 46.67 0.68 46.34 0 46 C0 33.13 0 20.26 0 7 C-0.66 6.67 -1.32 6.34 -2 6 C-1.34 4.02 -0.68 2.04 0 0 Z " fill="#6C6A94" transform="translate(172,417)"/>
<path d="M0 0 C0.33 0 0.66 0 1 0 C1.05064837 6.49614132 1.0857117 12.99223185 1.10986328 19.48852539 C1.11993006 21.69915673 1.13358448 23.90977472 1.15087891 26.12036133 C1.17509738 29.29511811 1.18647627 32.46969906 1.1953125 35.64453125 C1.20563507 36.63524124 1.21595764 37.62595123 1.22659302 38.64668274 C1.22674408 39.56741074 1.22689514 40.48813873 1.22705078 41.43676758 C1.231492 42.2472908 1.23593323 43.05781403 1.24050903 43.89289856 C1 46 1 46 -1 49 C-1 34.48 -1 19.96 -1 5 C-1.66 4.67 -2.32 4.34 -3 4 C-2.02727325 2.64664105 -1.0260734 1.31337396 0 0 Z " fill="#595B87" transform="translate(175,412)"/>
<path d="M0 0 C0.33 0 0.66 0 1 0 C1.33 8.25 1.66 16.5 2 25 C2.66 25.33 3.32 25.66 4 26 C2.68 29.96 1.36 33.92 0 38 C-2 36 -2 36 -2.22705078 33.66162109 C-2.21657715 32.70852051 -2.20610352 31.75541992 -2.1953125 30.7734375 C-2.18886719 29.7421875 -2.18242188 28.7109375 -2.17578125 27.6484375 C-2.15902344 26.56820313 -2.14226562 25.48796875 -2.125 24.375 C-2.11597656 23.28703125 -2.10695313 22.1990625 -2.09765625 21.078125 C-2.07403409 18.38519848 -2.04109556 15.69270745 -2 13 C-2.66 12.67 -3.32 12.34 -4 12 C-3.52494322 10.18641846 -3.04483958 8.37415821 -2.5625 6.5625 C-2.29566406 5.55316406 -2.02882813 4.54382813 -1.75390625 3.50390625 C-1 1 -1 1 0 0 Z " fill="#7B7399" transform="translate(121,405)"/>
<path d="M0 0 C1.32 0.66 2.64 1.32 4 2 C6.14006369 8.42019108 4.95781181 15.41504378 4 22 C2.35 22.66 0.7 23.32 -1 24 C-0.67 16.08 -0.34 8.16 0 0 Z " fill="#535684" transform="translate(302,134)"/>
<path d="M0 0 C1.32 0.99 2.64 1.98 4 3 C3.68289063 4.19496094 3.36578125 5.38992187 3.0390625 6.62109375 C1.61032614 13.05040738 1.54245457 19.50037406 1.375 26.0625 C1.33632813 27.30966797 1.29765625 28.55683594 1.2578125 29.84179688 C1.16424642 32.89439017 1.07850328 35.94698847 1 39 C0.01 39.495 0.01 39.495 -1 40 C-1.02464775 34.46411467 -1.04283496 28.928261 -1.05493164 23.39233398 C-1.05997244 21.5075627 -1.06680498 19.62279535 -1.07543945 17.73803711 C-1.08751617 15.03498364 -1.09323068 12.33198169 -1.09765625 9.62890625 C-1.10281754 8.78099014 -1.10797882 7.93307404 -1.11329651 7.0594635 C-1.11349195 5.03928932 -1.06206211 3.01922066 -1 1 C-0.67 0.67 -0.34 0.34 0 0 Z " fill="#9A94B1" transform="translate(293,124)"/>
<path d="M0 0 C1.32 0.33 2.64 0.66 4 1 C4 6.61 4 12.22 4 18 C1.69 18 -0.62 18 -3 18 C-2.6889315 15.93728361 -2.37608484 13.87483534 -2.0625 11.8125 C-1.88847656 10.66394531 -1.71445313 9.51539063 -1.53515625 8.33203125 C-1.08620687 5.53674788 -0.57917838 2.77066414 0 0 Z " fill="#B4AEC4" transform="translate(163,455)"/>
<path d="M0 0 C0.66 0 1.32 0 2 0 C2.04963288 5.56842771 2.08582963 11.13672511 2.10986328 16.70532227 C2.11988815 18.59759771 2.13351155 20.48985778 2.15087891 22.38208008 C2.17528222 25.1102275 2.18651845 27.83816915 2.1953125 30.56640625 C2.20563507 31.40522842 2.21595764 32.2440506 2.22659302 33.10829163 C2.22754087 38.1298712 1.61591021 42.23893583 0 47 C-0.33 47 -0.66 47 -1 47 C-1.07507671 36.52888412 -0.84296807 26.08897878 -0.5 15.625 C-0.45162143 14.09896471 -0.40344331 12.57292305 -0.35546875 11.046875 C-0.23927964 7.36450735 -0.12041393 3.68223221 0 0 Z " fill="#5A5C87" transform="translate(140,400)"/>
<path d="M0 0 C0.33 0 0.66 0 1 0 C1.22666276 3.72828885 1.42809699 7.45753041 1.625 11.1875 C1.68945312 12.24259766 1.75390625 13.29769531 1.8203125 14.38476562 C1.871875 15.40634766 1.9234375 16.42792969 1.9765625 17.48046875 C2.02893066 18.41785889 2.08129883 19.35524902 2.13525391 20.32104492 C1.98672793 23.26287805 1.23448557 25.34353874 0 28 C-4.12848968 23.87151032 -3.23304687 18.20400401 -3.25976562 12.66186523 C-3.19652182 7.68567245 -2.49591856 4.26386087 0 0 Z " fill="#63638E" transform="translate(88,392)"/>
<path d="M0 0 C0.66 0 1.32 0 2 0 C2.02488181 5.38940095 2.04294551 10.7787678 2.05493164 16.16821289 C2.05993319 17.99829695 2.06673656 19.82837707 2.07543945 21.65844727 C2.08768932 24.30225604 2.09327023 26.94601158 2.09765625 29.58984375 C2.10281754 30.39646957 2.10797882 31.2030954 2.11329651 32.03416443 C2.11381887 37.42943409 1.67594484 42.6462362 1 48 C0.67 48 0.34 48 0 48 C0 34.14 0 20.28 0 6 C-0.66 5.67 -1.32 5.34 -2 5 C-1.34 3.35 -0.68 1.7 0 0 Z " fill="#64648F" transform="translate(190,419)"/>
<path d="M0 0 C0.33 0 0.66 0 1 0 C1 7.92 1 15.84 1 24 C-0.65 23.67 -2.3 23.34 -4 23 C-4.15340179 17.86437488 -3.62626414 13.13211305 -2.5625 8.125 C-2.42779297 7.44953125 -2.29308594 6.7740625 -2.15429688 6.078125 C-1.13737555 1.13737555 -1.13737555 1.13737555 0 0 Z " fill="#C2BDCE" transform="translate(147,448)"/>
<path d="M0 0 C0.33 0 0.66 0 1 0 C1 7.92 1 15.84 1 24 C-0.32 24 -1.64 24 -3 24 C-6.3274129 17.3451742 -2.04802249 6.65929324 0 0 Z " fill="#A19BB6" transform="translate(99,418)"/>
<path d="M0 0 C0.99 0 1.98 0 3 0 C3.08789644 3.83318619 3.14069087 7.66610928 3.1875 11.5 C3.22520508 13.11648438 3.22520508 13.11648438 3.26367188 14.765625 C3.32314008 21.26748241 2.73652596 26.08163414 0 32 C-0.66 31.34 -1.32 30.68 -2 30 C-1.67 29.67 -1.34 29.34 -1 29 C-0.92474139 27.19285266 -0.91686145 25.38281473 -0.9375 23.57421875 C-0.94523437 22.46755859 -0.95296875 21.36089844 -0.9609375 20.22070312 C-0.98684962 17.87695169 -1.01288999 15.53320167 -1.0390625 13.18945312 C-1.04679687 12.07892578 -1.05453125 10.96839844 -1.0625 9.82421875 C-1.07990234 8.29414185 -1.07990234 8.29414185 -1.09765625 6.7331543 C-1.01098752 4.30751308 -0.7010871 2.31200033 0 0 Z " fill="#8580A0" transform="translate(100,413)"/>
<path d="M0 0 C1.32 0.66 2.64 1.32 4 2 C3.8460376 2.55268555 3.6920752 3.10537109 3.53344727 3.67480469 C2.95523532 6.19512073 2.68948136 8.62728045 2.46484375 11.203125 C2.37783203 12.1828125 2.29082031 13.1625 2.20117188 14.171875 C2.11416016 15.18765625 2.02714844 16.2034375 1.9375 17.25 C1.84662109 18.28125 1.75574219 19.3125 1.66210938 20.375 C1.43855754 22.91643144 1.2179601 25.45808391 1 28 C1.66 28.33 2.32 28.66 3 29 C1.35 29.33 -0.3 29.66 -2 30 C-1.04892966 8.99082569 -1.04892966 8.99082569 0 0 Z " fill="#787499" transform="translate(298,131)"/>
<path d="M0 0 C0.66 0.33 1.32 0.66 2 1 C1.67 12.88 1.34 24.76 1 37 C0.34 37 -0.32 37 -1 37 C-1.22790573 32.52160743 -1.42876818 28.04238336 -1.625 23.5625 C-1.68945312 22.30244141 -1.75390625 21.04238281 -1.8203125 19.74414062 C-2.11275018 12.74391375 -1.92433554 6.74986397 0 0 Z " fill="#938EAC" transform="translate(186,432)"/>
<path d="M0 0 C0.66 0.33 1.32 0.66 2 1 C2.19327988 5.44696509 2.37183208 9.89421186 2.53710938 14.34228516 C2.59529564 15.85351169 2.65741433 17.36459239 2.72363281 18.87548828 C2.81844546 21.05474264 2.89882544 23.23414014 2.9765625 25.4140625 C3.02893066 26.7232666 3.08129883 28.0324707 3.13525391 29.38134766 C3.00048182 32.98710902 2.32313737 35.66280371 1 39 C0.67 39 0.34 39 0 39 C0 28.11 0 17.22 0 6 C-0.66 5.67 -1.32 5.34 -2 5 C-1.34 3.35 -0.68 1.7 0 0 Z " fill="#7F7A9E" transform="translate(136,416)"/>
<path d="M0 0 C0.33 0 0.66 0 1 0 C1 10.23 1 20.46 1 31 C1.66 31 2.32 31 3 31 C2.67 32.32 2.34 33.64 2 35 C1.01 34.67 0.02 34.34 -1 34 C-1.22773504 29.83415912 -1.42867568 25.66742995 -1.625 21.5 C-1.68945312 20.32695312 -1.75390625 19.15390625 -1.8203125 17.9453125 C-2.10941424 11.51279876 -1.99148432 6.14167684 0 0 Z " fill="#AEA8BE" transform="translate(149,438)"/>
<path d="M0 0 C0.66 0.33 1.32 0.66 2 1 C2 17.5 2 34 2 51 C1.01 51.495 1.01 51.495 0 52 C-0.16781579 44.7552738 -0.32778113 37.5104054 -0.48217773 30.26538086 C-0.53568795 27.79854365 -0.59102393 25.33174536 -0.64819336 22.86499023 C-0.72985335 19.32804767 -0.80503753 15.79101902 -0.87890625 12.25390625 C-0.90594131 11.14350479 -0.93297638 10.03310333 -0.96083069 8.88905334 C-0.98092697 7.86807053 -1.00102325 6.84708771 -1.02172852 5.79516602 C-1.04171402 4.89137711 -1.06169952 3.9875882 -1.08229065 3.05641174 C-1 1 -1 1 0 0 Z " fill="#3E497B" transform="translate(194,407)"/>
<path d="M0 0 C0.66 0 1.32 0 2 0 C2.049377 4.52065428 2.08570823 9.04115217 2.10986328 13.56201172 C2.11993118 15.10045098 2.13358646 16.63887107 2.15087891 18.17724609 C2.17509317 20.38644133 2.18647491 22.59538395 2.1953125 24.8046875 C2.20563507 25.49432587 2.21595764 26.18396423 2.22659302 26.89450073 C2.22699478 28.59800906 2.12191026 30.30085943 2 32 C1.34 32.66 0.68 33.32 0 34 C-1 33 -1 33 -1.11352539 31.05053711 C-1.10567017 29.8015564 -1.10567017 29.8015564 -1.09765625 28.52734375 C-1.09443359 27.62822266 -1.09121094 26.72910156 -1.08789062 25.80273438 C-1.07951172 24.85720703 -1.07113281 23.91167969 -1.0625 22.9375 C-1.05798828 21.98810547 -1.05347656 21.03871094 -1.04882812 20.06054688 C-1.0370011 17.70696935 -1.02052025 15.35351523 -1 13 C-0.67 13 -0.34 13 0 13 C0 8.71 0 4.42 0 0 Z " fill="#9F96B5" transform="translate(116,422)"/>
<path d="M0 0 C0.33 0 0.66 0 1 0 C1 10.89 1 21.78 1 33 C0.01 33.495 0.01 33.495 -1 34 C-1.19279158 29.80125838 -1.3714261 25.60222204 -1.53710938 21.40234375 C-1.59541735 19.97444624 -1.65755423 18.54669964 -1.72363281 17.11914062 C-1.81808538 15.06408166 -1.89863877 13.00886899 -1.9765625 10.953125 C-2.02893066 9.71723633 -2.08129883 8.48134766 -2.13525391 7.20800781 C-2.00570235 4.13525065 -1.63395097 2.554094 0 0 Z " fill="#62628C" transform="translate(123,397)"/>
<path d="M0 0 C0 5.94 0 11.88 0 18 C-1.32 18 -2.64 18 -4 18 C-4 12.39 -4 6.78 -4 1 C-2 0 -2 0 0 0 Z " fill="#727096" transform="translate(359,207)"/>
<path d="M0 0 C0 5.94 0 11.88 0 18 C-5 13 -5 13 -5.59375 10.68359375 C-5.44458509 7.10985109 -5.34030176 4.63419873 -3.625 1.4375 C-2 0 -2 0 0 0 Z " fill="#D6D4DF" transform="translate(331,177)"/>
<path d="M0 0 C0.33 0 0.66 0 1 0 C1 11.88 1 23.76 1 36 C0.67 36 0.34 36 0 36 C-0.03738281 34.79601562 -0.07476562 33.59203125 -0.11328125 32.3515625 C-0.17892928 30.77600989 -0.24537701 29.20049046 -0.3125 27.625 C-0.34633789 26.43390625 -0.34633789 26.43390625 -0.38085938 25.21875 C-0.47785075 23.13784419 -0.72994825 21.06558668 -1 19 C-1.99 18.34 -2.98 17.68 -4 17 C-2.68 11.39 -1.36 5.78 0 0 Z " fill="#A09BB3" transform="translate(167,437)"/>
<path d="M0 0 C0.66 0 1.32 0 2 0 C2 10.23 2 20.46 2 31 C-0.43202132 28.56797868 -0.27616389 27.84061341 -0.37890625 24.5 C-0.41306641 23.613125 -0.44722656 22.72625 -0.48242188 21.8125 C-0.50884766 20.884375 -0.53527344 19.95625 -0.5625 19 C-0.62234232 17.16653314 -0.68596119 15.33318447 -0.75390625 13.5 C-0.77783447 12.6853125 -0.8017627 11.870625 -0.82641602 11.03125 C-0.87977993 8.93257992 -0.87977993 8.93257992 -2 7 C-1.39239518 4.6505947 -0.72870472 2.31470912 0 0 Z " fill="#5E5F8B" transform="translate(105,393)"/>
<path d="M0 0 C0.33 0 0.66 0 1 0 C1.19327891 6.94140828 1.3707619 13.88308972 1.53710938 20.82519531 C1.59561679 23.18824468 1.65778059 25.5512064 1.72363281 27.9140625 C1.81749629 31.30452518 1.89833501 34.69508259 1.9765625 38.0859375 C2.00875885 39.14743011 2.0409552 40.20892273 2.0741272 41.30258179 C2.09429901 42.28344757 2.11447083 43.26431335 2.13525391 44.27490234 C2.15746002 45.14094086 2.17966614 46.00697937 2.20254517 46.89926147 C2 49 2 49 0 51 C-0.33 37.47 -0.66 23.94 -1 10 C-1.99 10.495 -1.99 10.495 -3 11 C-2.01 7.37 -1.02 3.74 0 0 Z " fill="#4B5181" transform="translate(176,403)"/>
<path d="M0 0 C0.66 0.33 1.32 0.66 2 1 C1.89020915 4.60479946 1.75955955 8.20854679 1.625 11.8125 C1.5940625 12.83666016 1.563125 13.86082031 1.53125 14.91601562 C1.49257813 15.89892578 1.45390625 16.88183594 1.4140625 17.89453125 C1.36693115 19.25348511 1.36693115 19.25348511 1.31884766 20.63989258 C1 23 1 23 -1 26 C-2.62894083 17.33403478 -3.10997234 8.35805065 0 0 Z " fill="#FAFAFB" transform="translate(279,131)"/>
<path d="M0 0 C0.33 0 0.66 0 1 0 C1.21908454 6.33488331 1.41397201 12.67017963 1.59204102 19.00634766 C1.65547462 21.16179244 1.72444926 23.31708156 1.79907227 25.47216797 C1.90536865 28.56974461 1.99173317 31.66733421 2.07421875 34.765625 C2.1302552 36.21113739 2.1302552 36.21113739 2.18742371 37.68585205 C2.20767105 38.58648376 2.2279184 39.48711548 2.2487793 40.41503906 C2.27320602 41.20557678 2.29763275 41.9961145 2.32279968 42.81060791 C2 45 2 45 -1 49 C-0.67 32.83 -0.34 16.66 0 0 Z " fill="#555884" transform="translate(192,419)"/>
<path d="M0 0 C0.33 0 0.66 0 1 0 C1.05791844 3.12492251 1.09356746 6.24970766 1.125 9.375 C1.14175781 10.26445312 1.15851563 11.15390625 1.17578125 12.0703125 C1.18222656 12.92109375 1.18867188 13.771875 1.1953125 14.6484375 C1.20578613 15.43395996 1.21625977 16.21948242 1.22705078 17.02880859 C1 19 1 19 -1 21 C-1.99 21 -2.98 21 -4 21 C-2.87723429 13.94090922 -1.62436599 6.96156852 0 0 Z " fill="#EAE8ED" transform="translate(202,449)"/>
<path d="M0 0 C0.33 0 0.66 0 1 0 C1.02893932 3.62498334 1.04677792 7.24993713 1.0625 10.875 C1.07087891 11.90753906 1.07925781 12.94007813 1.08789062 14.00390625 C1.09111328 14.99003906 1.09433594 15.97617188 1.09765625 16.9921875 C1.10289307 17.90339355 1.10812988 18.81459961 1.11352539 19.75341797 C1 22 1 22 0 24 C0.66 24.33 1.32 24.66 2 25 C0.68 25 -0.64 25 -2 25 C-1.8612119 21.39552566 -1.71276065 17.79151288 -1.5625 14.1875 C-1.52318359 13.16333984 -1.48386719 12.13917969 -1.44335938 11.08398438 C-1.40146484 10.10107422 -1.35957031 9.11816406 -1.31640625 8.10546875 C-1.27974854 7.19949951 -1.24309082 6.29353027 -1.20532227 5.36010742 C-1 3 -1 3 0 0 Z " fill="#63638D" transform="translate(301,134)"/>
<path d="M0 0 C2.67899773 2.67899773 2.25766539 4.03831731 2.265625 7.77734375 C2.26820312 8.93041016 2.27078125 10.08347656 2.2734375 11.27148438 C2.26570313 12.48126953 2.25796875 13.69105469 2.25 14.9375 C2.25773437 16.14341797 2.26546875 17.34933594 2.2734375 18.59179688 C2.27085938 19.74615234 2.26828125 20.90050781 2.265625 22.08984375 C2.26336914 23.15066162 2.26111328 24.21147949 2.25878906 25.30444336 C2 28 2 28 0 31 C-0.16783149 27.06756732 -0.32836761 23.13491104 -0.48217773 19.2019043 C-0.56173399 17.2067109 -0.64705005 15.21174989 -0.73242188 13.21679688 C-0.78076172 11.96318359 -0.82910156 10.70957031 -0.87890625 9.41796875 C-0.9260376 8.26063232 -0.97316895 7.1032959 -1.02172852 5.91088867 C-1 3 -1 3 0 0 Z " fill="#3F497B" transform="translate(91,377)"/>
<path d="M0 0 C2 2 2 2 2.23046875 3.8828125 C2.13255111 8.99233325 1.89957947 13.96235498 1 19 C0.34 19.33 -0.32 19.66 -1 20 C-1.02888514 16.85418577 -1.04675923 13.70840531 -1.0625 10.5625 C-1.07087891 9.66466797 -1.07925781 8.76683594 -1.08789062 7.84179688 C-1.09111328 6.98779297 -1.09433594 6.13378906 -1.09765625 5.25390625 C-1.10551147 4.06776733 -1.10551147 4.06776733 -1.11352539 2.85766602 C-1 1 -1 1 0 0 Z " fill="#414B7C" transform="translate(305,137)"/>
<path d="M0 0 C0.33 0 0.66 0 1 0 C1.33 5.94 1.66 11.88 2 18 C0.35 16.68 -1.3 15.36 -3 14 C-2.01 9.38 -1.02 4.76 0 0 Z " fill="#CAC6D6" transform="translate(112,441)"/>
<path d="M0 0 C0.33 0 0.66 0 1 0 C1.66 6.6 2.32 13.2 3 20 C2.34 20.33 1.68 20.66 1 21 C-0.78372815 16.4102489 -1.24456334 12.60013523 -1.1875 7.6875 C-1.18105469 6.45386719 -1.17460938 5.22023438 -1.16796875 3.94921875 C-1 1 -1 1 0 0 Z " fill="#747297" transform="translate(86,399)"/>
<path d="M0 0 C0.33 0 0.66 0 1 0 C1 8.58 1 17.16 1 26 C0.67 26 0.34 26 0 26 C-0.07347656 24.28490234 -0.07347656 24.28490234 -0.1484375 22.53515625 C-0.22345189 21.04424527 -0.29900028 19.55336108 -0.375 18.0625 C-0.42140625 16.93038086 -0.42140625 16.93038086 -0.46875 15.77539062 C-0.5726315 13.84492605 -0.77895614 11.92057919 -1 10 C-1.66 9.67 -2.32 9.34 -3 9 C-2.01 6.03 -1.02 3.06 0 0 Z " fill="#454C7B" transform="translate(222,372)"/>
<path d="M0 0 C0.66 0 1.32 0 2 0 C1.67 11.55 1.34 23.1 1 35 C0.67 35 0.34 35 0 35 C-0.16800236 30.65860566 -0.32851981 26.31701785 -0.48217773 21.97509766 C-0.53547011 20.49878539 -0.59078903 19.02254481 -0.64819336 17.54638672 C-0.73046212 15.42170666 -0.80538335 13.29687349 -0.87890625 11.171875 C-0.9260376 9.8940918 -0.97316895 8.61630859 -1.02172852 7.29980469 C-1.00390727 4.59337842 -0.83306311 2.54687307 0 0 Z " fill="#BCB6CB" transform="translate(207,429)"/>
<path d="M0 0 C0.33 0 0.66 0 1 0 C1 5.94 1 11.88 1 18 C-0.32 18 -1.64 18 -3 18 C-2.6889315 15.93728361 -2.37608484 13.87483534 -2.0625 11.8125 C-1.88847656 10.66394531 -1.71445313 9.51539063 -1.53515625 8.33203125 C-1.08620687 5.53674788 -0.57917838 2.77066414 0 0 Z " fill="#CECAD7" transform="translate(163,455)"/>
<path d="M0 0 C1.30062431 3.81516464 0.89369853 7.27561763 0.5625 11.25 C0.46066406 12.51328125 0.35882813 13.7765625 0.25390625 15.078125 C0.17011719 16.04234375 0.08632812 17.0065625 0 18 C-0.99 18 -1.98 18 -3 18 C-3.2549878 12.1352807 -2.4918552 6.68429498 -1 1 C-0.67 0.67 -0.34 0.34 0 0 Z " fill="#D7CDDE" transform="translate(146,453)"/>
<path d="M0 0 C0.99 0.99 1.98 1.98 3 3 C2.67 3.99 2.34 4.98 2 6 C1.78626703 7.6977458 1.61265449 9.40071816 1.46484375 11.10546875 C1.37783203 12.08837891 1.29082031 13.07128906 1.20117188 14.08398438 C1.11416016 15.10814453 1.02714844 16.13230469 0.9375 17.1875 C0.80118164 18.74114258 0.80118164 18.74114258 0.66210938 20.32617188 C0.43816517 22.88385044 0.21759327 25.44177459 0 28 C0.66 28.33 1.32 28.66 2 29 C1.01 29 0.02 29 -1 29 C-1.16831537 19.29381339 -0.64217298 9.67846426 0 0 Z " fill="#6E6B94" transform="translate(299,131)"/>
<path d="M0 0 C0.33 0 0.66 0 1 0 C1.33 6.6 1.66 13.2 2 20 C2.66 20.33 3.32 20.66 4 21 C3.01 23.31 2.02 25.62 1 28 C0.67 28 0.34 28 0 28 C0 18.76 0 9.52 0 0 Z " fill="#716F94" transform="translate(121,410)"/>
<path d="M0 0 C0.33 0 0.66 0 1 0 C1.2258868 4.41595304 1.42767834 8.83268565 1.625 13.25 C1.68945312 14.50425781 1.75390625 15.75851562 1.8203125 17.05078125 C1.871875 18.25605469 1.9234375 19.46132813 1.9765625 20.703125 C2.02893066 21.81333008 2.08129883 22.92353516 2.13525391 24.06738281 C2.00051254 26.98888697 1.52929484 28.54686494 0 31 C-0.66 30.34 -1.32 29.68 -2 29 C-1.67 28.67 -1.34 28.34 -1 28 C-0.9247621 26.18112373 -0.91685696 24.35937717 -0.9375 22.5390625 C-0.94523437 21.42789062 -0.95296875 20.31671875 -0.9609375 19.171875 C-0.98689314 16.81510322 -1.01293423 14.45833237 -1.0390625 12.1015625 C-1.04679687 10.9878125 -1.05453125 9.8740625 -1.0625 8.7265625 C-1.07410156 7.70127441 -1.08570312 6.67598633 -1.09765625 5.61962891 C-1 3 -1 3 0 0 Z " fill="#928CAB" transform="translate(100,414)"/>
<path d="M0 0 C0.66 0 1.32 0 2 0 C2 9.9 2 19.8 2 30 C1.67 30 1.34 30 1 30 C1 21.42 1 12.84 1 4 C0.34 4 -0.32 4 -1 4 C-0.67 2.68 -0.34 1.36 0 0 Z " fill="#475280" transform="translate(124,391)"/>
<path d="M0 0 C0.66 0 1.32 0 2 0 C2 3.3 2 6.6 2 10 C0.68 10 -0.64 10 -2 10 C-2.17942163 6.05272412 -2.09350689 3.4019487 0 0 Z " fill="#EEECF1" transform="translate(348,215)"/>
<path d="M0 0 C0.33 0 0.66 0 1 0 C1 4.95 1 9.9 1 15 C0.01 15 -0.98 15 -2 15 C-2.22577402 9.5814234 -1.46670113 5.22512279 0 0 Z " fill="#C5C1D3" transform="translate(181,456)"/>
<path d="M0 0 C0.66 0 1.32 0 2 0 C2 3.63 2 7.26 2 11 C0.68 10.34 -0.64 9.68 -2 9 C-1.34 6.03 -0.68 3.06 0 0 Z " fill="#D9D5DF" transform="translate(127,456)"/>
<path d="M0 0 C0.33 0 0.66 0 1 0 C1 6.6 1 13.2 1 20 C0.67 20 0.34 20 0 20 C0 16.37 0 12.74 0 9 C-0.66 9 -1.32 9 -2 9 C-1.34 6.03 -0.68 3.06 0 0 Z " fill="#C7C2D1" transform="translate(129,447)"/>
<path d="M0 0 C2 2 2 2 2.265625 4.09375 C2.25789063 5.28484375 2.25789063 5.28484375 2.25 6.5 C2.25515625 7.2940625 2.2603125 8.088125 2.265625 8.90625 C2 11 2 11 0 13 C-1.36421031 10.27157939 -0.87807211 8.39046682 -0.5625 5.375 C-0.40974609 3.87066406 -0.40974609 3.87066406 -0.25390625 2.3359375 C-0.17011719 1.56507813 -0.08632812 0.79421875 0 0 Z " fill="#BAB4C7" transform="translate(96,429)"/>
<path d="M0 0 C0.33 0 0.66 0 1 0 C1 4.62 1 9.24 1 14 C0.34 14 -0.32 14 -1 14 C-1.22226864 12.23086176 -1.42733873 10.45955629 -1.625 8.6875 C-1.74101562 7.70136719 -1.85703125 6.71523437 -1.9765625 5.69921875 C-2 3 -2 3 0 0 Z " fill="#C9C3D2" transform="translate(351,211)"/>
<path d="M0 0 C0.33 0 0.66 0 1 0 C1 4.95 1 9.9 1 15 C0.67 14.01 0.34 13.02 0 12 C-0.66 12 -1.32 12 -2 12 C-1.34 8.04 -0.68 4.08 0 0 Z " fill="#A9A4BC" transform="translate(167,437)"/>
<path d="M0 0 C0.66 0 1.32 0 2 0 C2.33 2.31 2.66 4.62 3 7 C1.68 7.33 0.36 7.66 -1 8 C-0.67 5.36 -0.34 2.72 0 0 Z " fill="#FAF9FA" transform="translate(199,462)"/>
<path d="M0 0 C0.99 0.33 1.98 0.66 3 1 C2.34 3.97 1.68 6.94 1 10 C0.67 10 0.34 10 0 10 C0 6.7 0 3.4 0 0 Z " fill="#9590AC" transform="translate(294,126)"/>
<path d="M0 0 C0.33 0 0.66 0 1 0 C0.67 2.97 0.34 5.94 0 9 C-0.66 8.67 -1.32 8.34 -2 8 C-1.125 1.125 -1.125 1.125 0 0 Z " fill="#4E5382" transform="translate(222,372)"/>
</svg>
